<?xml version="1.0" encoding="UTF-8"?><svg id="b" xmlns="http://www.w3.org/2000/svg" width="16" height="16" viewBox="0 0 16 16"><g id="c"><path d="M.6,0h-.6v.6c0-.16.06-.31.18-.42.11-.11.26-.18.42-.18Z" fill="none"/><path d="M15.4,16h.6v-.6c0,.16-.06.31-.18.42s-.26.18-.42.18Z" fill="none"/><path d="M0,15.4v.6h.6c-.16,0-.31-.06-.42-.18-.11-.11-.18-.26-.18-.42Z" fill="none"/><path d="M15.4,0c.16,0,.31.06.42.18s.18.26.18.42v-.6h-.6Z" fill="none"/><path d="M3.25,2.93h1.47c.51,0,.89.2,1.12.6.23.4.35.93.35,1.57v2.23h0c0,.39-.04.75-.13,1.06-.08.31-.22.56-.41.75l.53,3.61h-1.09l-.48-3.24h-.28v3.24h-1.09v.03h2.96V2.93h-2.96Z" fill="#d3d609"/><path d="M4.72,8.41c.15,0,.25-.09.3-.27.05-.18.08-.45.08-.81v-2.23c0-.36-.03-.62-.08-.81-.05-.18-.15-.27-.3-.27h-.38v4.39h.38Z" fill="#d3d609"/><path d="M9.76,13.07h1.19c-.23-.04-.51-.14-.74-.38-.24-.25-.31-.55-.35-.74-.02-.11-.04-.22-.05-.83,0-.28,0-.51,0-.67.36,0,.72,0,1.08,0-.01.61,0,.87,0,.99,0,.01.01.22.01.22.02.04.07.17.2.24.12.06.31.1.44-.02.11-.1.11-.24.1-.27,0-.16,0-.32,0-.48v-1.64c-.13.05-.58.2-1.05,0-.25-.1-.4-.25-.45-.3-.23-.23-.3-.49-.33-.61-.08-.3-.05-.55-.02-.69V2.93c.18-.01.37-.02.58-.02.18,0,.35,0,.52.02v4.97c0,.17,0,.35.01.52.06.17.22.28.39.27.15-.01.29-.12.34-.27,0-.17.01-.35.02-.52V2.93h0c.16-.02.34-.03.53-.03.21,0,.4,0,.57.03v8.19c0,.3-.01.6-.02.9-.04.14-.13.41-.37.66-.26.26-.56.36-.78.39h1.19V2.9h-3.02v10.17Z" fill="#d3d609"/><path d="M7.99,4.02c-.11,0-.2.04-.27.11-.07.07-.11.22-.11.42v2.61h.76v-2.61c0-.21-.04-.35-.11-.42-.07-.07-.16-.11-.27-.11Z" fill="#d3d609"/><path d="M15.4,0H.6c-.16,0-.31.06-.42.18-.11.11-.18.26-.18.42v14.8c0,.16.06.31.18.42.11.11.26.18.42.18h14.8c.16,0,.31-.06.42-.18s.18-.26.18-.42V.6c0-.16-.06-.31-.18-.42s-.26-.18-.42-.18ZM6.21,12.77h-2.96V2.93h0s2.96,0,2.96,0v9.85ZM9.46,12.75h-2.95v-1.09h2.95v1.09ZM9.46,10.94h-1.09v-2.68h-.76v2.68h-1.09v-6.38c0-.51.13-.9.38-1.19.25-.29.62-.44,1.09-.44s.84.15,1.09.44c.25.29.38.69.38,1.19v6.38ZM12.77,13.07h-3.02V2.9h3.02v10.17Z" fill="#d3d609"/><path d="M4.34,9.51h.28l.48,3.24h1.09l-.53-3.61c.19-.19.32-.44.41-.75.08-.31.13-.67.13-1.06h0v-2.23c0-.65-.12-1.17-.35-1.57-.23-.4-.61-.6-1.12-.6h-1.47v9.82h1.09v-3.24ZM4.34,4.02h.38c.15,0,.25.09.3.27.05.18.08.45.08.81v2.23c0,.36-.03.62-.08.81-.05.18-.15.27-.3.27h0s-.38,0-.38,0v-4.39Z" fill="#141414"/><path d="M6.52,11.65v1.09h2.95v-1.09h-2.95Z" fill="#141414"/><path d="M7.99,2.93c-.48,0-.84.15-1.09.44-.25.29-.38.69-.38,1.19v6.38h1.09v-2.68h.76v2.68h1.09v-6.38c0-.51-.13-.9-.38-1.19-.25-.29-.62-.44-1.09-.44ZM8.37,7.16h-.76v-2.61c0-.21.04-.35.11-.42.07-.07.16-.11.27-.11s.2.04.27.11c.07.07.11.22.11.42v2.61Z" fill="#141414"/><path d="M12.74,12.02c0-.3.01-.6.02-.9V2.93c-.17-.02-.36-.03-.57-.03-.19,0-.37.01-.53.03h0v4.97c0,.17-.01.35-.02.52-.05.15-.18.26-.34.27-.17.01-.33-.1-.39-.27,0-.17,0-.35-.01-.52V2.93c-.16,0-.34-.02-.52-.02-.2,0-.39,0-.58.02v4.97c-.03.14-.06.39.02.69.03.12.1.37.33.61.05.05.2.2.45.3.48.19.93.04,1.05,0v1.64c0,.16,0,.32,0,.48,0,.03,0,.18-.1.27-.13.12-.33.08-.44.02-.14-.07-.19-.2-.2-.24,0,0-.01-.21-.01-.22,0-.11-.01-.37,0-.99-.36,0-.72,0-1.08,0,0,.17,0,.4,0,.67,0,.61.02.72.05.83.04.19.11.49.35.74.23.24.51.34.74.38h.64c.22-.04.52-.14.78-.39.24-.24.33-.52.37-.66Z" fill="#141414"/></g></svg>