<?xml version="1.0" encoding="UTF-8"?><svg id="b" xmlns="http://www.w3.org/2000/svg" width="192" height="192" viewBox="0 0 192 192"><g id="c"><path d="M7.18,0H0v7.18c0-1.9.76-3.73,2.1-5.07C3.45.76,5.27,0,7.18,0Z" fill="none"/><path d="M184.82,192h7.18v-7.18c0,1.9-.76,3.73-2.1,5.07s-3.17,2.1-5.07,2.1Z" fill="none"/><path d="M0,184.82v7.18h7.18c-1.9,0-3.73-.76-5.07-2.1-1.35-1.35-2.1-3.17-2.1-5.07Z" fill="none"/><path d="M184.82,0c1.9,0,3.73.76,5.07,2.1s2.1,3.17,2.1,5.07V0h-7.18Z" fill="none"/><path d="M38.97,35.13h17.68c6.17,0,10.66,2.41,13.47,7.24,2.81,4.83,4.21,11.11,4.21,18.86v26.77h0c0,4.71-.51,8.95-1.52,12.71-1.01,3.76-2.64,6.76-4.88,9.01l6.4,43.27h-13.13l-5.72-38.89h-3.37v38.89h-13.13v.32h35.55V35.13h-35.55Z" fill="#d3d609"/><path d="M56.65,100.96c1.79,0,3-1.1,3.62-3.28.62-2.19.92-5.42.92-9.68v-26.77c0-4.27-.31-7.49-.92-9.68-.62-2.19-1.83-3.28-3.62-3.28h-4.55v52.69h4.55Z" fill="#d3d609"/><path d="M117.1,156.85h14.29c-2.75-.49-6.16-1.67-8.86-4.53-2.87-3.03-3.69-6.63-4.21-8.9-.3-1.29-.49-2.67-.56-9.97-.03-3.32-.02-6.09,0-8.08,4.34,0,8.67,0,13.01-.01-.14,7.38-.09,10.46-.02,11.82,0,.12.16,2.67.16,2.67.18.49.82,2.02,2.45,2.9,1.38.75,3.74,1.16,5.29-.27,1.28-1.18,1.26-2.92,1.25-3.29.03-1.91.06-3.82.08-5.74v-19.7c-1.55.59-6.94,2.43-12.65.1-2.95-1.2-4.8-3.02-5.36-3.61-2.72-2.82-3.58-5.88-3.96-7.28-.95-3.55-.59-6.57-.25-8.24v-59.6c2.18-.13,4.48-.2,6.9-.19,2.17,0,4.25.08,6.23.19v59.6c.05,2.08.1,4.16.15,6.24.68,2.05,2.64,3.37,4.7,3.22,1.83-.13,3.44-1.41,4.03-3.22.07-2.08.14-4.16.21-6.24v-59.6h0c1.93-.18,4.04-.3,6.31-.31,2.46,0,4.75.11,6.82.31v98.32c-.08,3.59-.17,7.18-.25,10.76-.43,1.68-1.53,4.97-4.44,7.9-3.09,3.1-6.71,4.27-9.35,4.73h14.22V34.81h-36.2v122.03Z" fill="#d3d609"/><path d="M95.87,48.27c-1.35,0-2.44.45-3.28,1.35-.84.9-1.26,2.58-1.26,5.05v31.31h9.09v-31.31c0-2.47-.42-4.15-1.26-5.05-.84-.9-1.94-1.35-3.29-1.35Z" fill="#d3d609"/><path d="M184.82,0H7.18c-1.9,0-3.73.76-5.07,2.1C.76,3.45,0,5.27,0,7.18v177.65c0,1.9.76,3.73,2.1,5.07,1.35,1.35,3.17,2.1,5.07,2.1h177.65c1.9,0,3.73-.76,5.07-2.1s2.1-3.17,2.1-5.07V7.18c0-1.9-.76-3.73-2.1-5.07s-3.17-2.1-5.07-2.1ZM74.52,153.3h-35.55V35.13h0s35.55,0,35.55,0v118.17ZM113.55,152.98h-35.35v-13.13h35.35v13.13ZM113.55,131.26h-13.13v-32.16h-9.09v32.16h-13.13V54.67c0-6.06,1.52-10.83,4.54-14.31,3.03-3.48,7.41-5.22,13.13-5.22s10.1,1.74,13.13,5.22c3.03,3.48,4.55,8.25,4.55,14.31v76.6ZM153.3,156.85h-36.2V34.81h36.2v122.03Z" fill="#d3d609"/><path d="M52.1,114.09h3.37l5.72,38.89h13.13l-6.4-43.27c2.24-2.24,3.87-5.25,4.88-9.01,1.01-3.76,1.52-8,1.52-12.71h0v-26.77c0-7.75-1.4-14.03-4.21-18.86-2.8-4.83-7.29-7.24-13.47-7.24h-17.68v117.85h13.13v-38.89ZM52.1,48.27h4.55c1.79,0,3,1.1,3.62,3.28.62,2.19.92,5.42.92,9.68v26.77c0,4.26-.31,7.49-.92,9.68-.62,2.19-1.83,3.28-3.62,3.28h0s-4.55,0-4.55,0v-52.69Z" fill="#141414"/><path d="M78.2,139.85v13.13h35.35v-13.13h-35.35Z" fill="#141414"/><path d="M95.87,35.13c-5.72,0-10.1,1.74-13.13,5.22-3.03,3.48-4.54,8.25-4.54,14.31v76.6h13.13v-32.16h9.09v32.16h13.13V54.67c0-6.06-1.52-10.83-4.55-14.31-3.03-3.48-7.41-5.22-13.13-5.22ZM100.42,85.98h-9.09v-31.31c0-2.47.42-4.15,1.26-5.05.84-.9,1.93-1.35,3.28-1.35s2.44.45,3.29,1.35c.84.9,1.26,2.58,1.26,5.05v31.31Z" fill="#141414"/><path d="M152.86,144.22c.08-3.59.17-7.18.25-10.76V35.13c-2.07-.2-4.36-.32-6.82-.31-2.27,0-4.38.13-6.31.31h0v59.6c-.07,2.08-.14,4.16-.21,6.24-.59,1.81-2.2,3.09-4.03,3.22-2.06.15-4.02-1.17-4.7-3.22-.05-2.08-.1-4.16-.15-6.24v-59.6c-1.98-.12-4.05-.19-6.23-.19-2.42,0-4.73.07-6.9.19v59.6c-.34,1.67-.7,4.69.25,8.24.38,1.4,1.24,4.46,3.96,7.28.56.58,2.42,2.41,5.36,3.61,5.71,2.32,11.1.49,12.65-.1v19.7c-.03,1.91-.06,3.82-.08,5.74.01.37.02,2.12-1.25,3.29-1.55,1.43-3.9,1.02-5.29.27-1.63-.88-2.27-2.41-2.45-2.9,0,0-.15-2.54-.16-2.67-.08-1.36-.12-4.44.02-11.82-4.34,0-8.67,0-13.01.01-.02,1.99-.03,4.77,0,8.08.07,7.3.26,8.68.56,9.97.52,2.27,1.34,5.86,4.21,8.9,2.7,2.86,6.11,4.05,8.86,4.53h7.68c2.63-.46,6.26-1.63,9.35-4.73,2.91-2.92,4.01-6.22,4.44-7.9Z" fill="#141414"/></g></svg>