<?xml version="1.0" encoding="UTF-8"?><svg id="b" xmlns="http://www.w3.org/2000/svg" width="256" height="256" viewBox="0 0 256 256"><g id="c"><path d="M9.57,0H0v9.57c0-2.54,1.01-4.97,2.8-6.77C4.6,1.01,7.03,0,9.57,0Z" fill="none"/><path d="M246.43,256h9.57v-9.57c0,2.54-1.01,4.97-2.8,6.76s-4.23,2.8-6.76,2.8Z" fill="none"/><path d="M0,246.43v9.57h9.57c-2.54,0-4.97-1.01-6.77-2.8-1.79-1.79-2.8-4.23-2.8-6.76Z" fill="none"/><path d="M246.43,0c2.54,0,4.97,1.01,6.76,2.8s2.8,4.23,2.8,6.77V0h-9.57Z" fill="none"/><path d="M51.96,46.85h23.57c8.23,0,14.22,3.22,17.96,9.65,3.74,6.44,5.61,14.82,5.61,25.14v35.69h0c0,6.28-.67,11.93-2.02,16.95-1.35,5.01-3.52,9.02-6.51,12.01l8.53,57.69h-17.51l-7.63-51.85h-4.49v51.85h-17.51v.42h47.4V46.84h-47.4Z" fill="#d3d609"/><path d="M75.53,134.62c2.39,0,4-1.46,4.83-4.38.82-2.92,1.23-7.22,1.23-12.91v-35.69c0-5.69-.41-9.99-1.23-12.91-.82-2.92-2.43-4.38-4.83-4.38h-6.06v70.26h6.06Z" fill="#d3d609"/><path d="M156.14,209.13h19.05c-3.67-.65-8.22-2.23-11.82-6.04-3.83-4.05-4.92-8.84-5.61-11.86-.39-1.72-.66-3.56-.75-13.29-.04-4.42-.02-8.12,0-10.78,5.78,0,11.56-.01,17.35-.02-.18,9.84-.13,13.95-.02,15.76,0,.17.21,3.56.21,3.56.24.65,1.09,2.69,3.26,3.86,1.85,1,4.98,1.55,7.05-.35,1.7-1.57,1.69-3.89,1.67-4.39.04-2.55.08-5.1.11-7.65v-26.26c-2.06.79-9.25,3.24-16.87.14-3.93-1.6-6.4-4.03-7.15-4.81-3.63-3.76-4.78-7.84-5.28-9.71-1.27-4.73-.78-8.76-.33-10.98V46.85c2.9-.17,5.98-.27,9.2-.26,2.9,0,5.67.1,8.31.26v79.46c.07,2.77.13,5.55.2,8.32.91,2.73,3.52,4.49,6.27,4.29,2.45-.18,4.59-1.88,5.38-4.29.09-2.77.18-5.54.27-8.32V46.85h0c2.58-.24,5.39-.4,8.42-.41,3.28-.01,6.33.15,9.09.41v131.09c-.11,4.78-.22,9.57-.33,14.35-.57,2.23-2.03,6.63-5.92,10.53-4.12,4.13-8.95,5.7-12.46,6.31h18.96V46.42h-48.26v162.71Z" fill="#d3d609"/><path d="M127.83,64.36c-1.8,0-3.25.6-4.37,1.8-1.12,1.2-1.68,3.44-1.68,6.73v41.75h12.12v-41.75c0-3.29-.56-5.54-1.68-6.73-1.12-1.2-2.58-1.8-4.38-1.8Z" fill="#d3d609"/><path d="M246.43,0H9.57c-2.54,0-4.97,1.01-6.77,2.8C1.01,4.6,0,7.03,0,9.57v236.86c0,2.54,1.01,4.97,2.8,6.76,1.79,1.79,4.23,2.8,6.77,2.8h236.86c2.54,0,4.97-1.01,6.76-2.8s2.8-4.23,2.8-6.76V9.57c0-2.54-1.01-4.97-2.8-6.77s-4.23-2.8-6.76-2.8ZM99.36,204.4h-47.4V46.85h0s47.4,0,47.4,0v157.56ZM151.4,203.98h-47.14v-17.51h47.14v17.51ZM151.4,175.02h-17.51v-42.87h-12.12v42.87h-17.51v-102.13c0-8.08,2.02-14.44,6.06-19.08,4.04-4.64,9.88-6.96,17.51-6.96s13.47,2.32,17.51,6.96c4.04,4.64,6.06,11,6.06,19.08v102.13ZM204.4,209.13h-48.26V46.42h48.26v162.71Z" fill="#d3d609"/><path d="M69.47,152.13h4.49l7.63,51.85h17.51l-8.53-57.69c2.99-2.99,5.16-6.99,6.51-12.01,1.35-5.01,2.02-10.66,2.02-16.95h0v-35.69c0-10.33-1.87-18.71-5.61-25.14-3.74-6.44-9.73-9.65-17.96-9.65h-23.57v157.13h17.51v-51.85ZM69.47,64.36h6.06c2.39,0,4,1.46,4.83,4.38.82,2.92,1.23,7.22,1.23,12.91v35.69c0,5.69-.41,9.99-1.23,12.91-.82,2.92-2.43,4.38-4.83,4.38h0s-6.06,0-6.06,0v-70.26Z" fill="#141414"/><path d="M104.26,186.47v17.51h47.14v-17.51h-47.14Z" fill="#141414"/><path d="M127.83,46.85c-7.63,0-13.47,2.32-17.51,6.96-4.04,4.64-6.06,11-6.06,19.08v102.13h17.51v-42.87h12.12v42.87h17.51v-102.13c0-8.08-2.02-14.44-6.06-19.08-4.04-4.64-9.88-6.96-17.51-6.96ZM133.89,114.64h-12.12v-41.75c0-3.29.56-5.54,1.68-6.73,1.12-1.2,2.58-1.8,4.37-1.8s3.26.6,4.38,1.8c1.12,1.2,1.68,3.44,1.68,6.73v41.75Z" fill="#141414"/><path d="M203.82,192.29c.11-4.78.22-9.57.33-14.35V46.85c-2.76-.26-5.81-.43-9.09-.41-3.02.01-5.84.17-8.42.41h0v79.46c-.09,2.77-.18,5.55-.27,8.32-.79,2.42-2.93,4.12-5.38,4.29-2.74.2-5.36-1.56-6.27-4.29-.07-2.77-.13-5.54-.2-8.32V46.85c-2.63-.16-5.41-.25-8.31-.26-3.23,0-6.3.09-9.2.26v79.46c-.45,2.23-.94,6.26.33,10.98.5,1.86,1.65,5.95,5.28,9.71.75.78,3.22,3.21,7.15,4.81,7.62,3.1,14.8.65,16.87-.14v26.26c-.04,2.55-.08,5.1-.11,7.65.01.5.03,2.82-1.67,4.39-2.07,1.9-5.2,1.35-7.05.35-2.17-1.17-3.02-3.21-3.26-3.86,0,0-.2-3.39-.21-3.56-.11-1.81-.16-5.92.02-15.76-5.78,0-11.56.01-17.35.02-.02,2.66-.04,6.35,0,10.78.09,9.73.35,11.57.75,13.29.69,3.02,1.79,7.82,5.61,11.86,3.6,3.81,8.15,5.4,11.82,6.04h10.25c3.51-.61,8.34-2.18,12.46-6.31,3.88-3.9,5.35-8.3,5.92-10.53Z" fill="#141414"/></g></svg>