<?xml version="1.0" encoding="UTF-8"?><svg id="b" xmlns="http://www.w3.org/2000/svg" width="48" height="48" viewBox="0 0 48 48"><g id="c"><path d="M1.79,0H0v1.79c0-.48.19-.93.53-1.27.34-.34.79-.53,1.27-.53Z" fill="none"/><path d="M46.21,48h1.79v-1.79c0,.48-.19.93-.53,1.27s-.79.53-1.27.53Z" fill="none"/><path d="M0,46.21v1.79h1.79c-.48,0-.93-.19-1.27-.53-.34-.34-.53-.79-.53-1.27Z" fill="none"/><path d="M46.21,0c.48,0,.93.19,1.27.53s.53.79.53,1.27V0h-1.79Z" fill="none"/><path d="M9.74,8.78h4.42c1.54,0,2.67.6,3.37,1.81.7,1.21,1.05,2.78,1.05,4.71v6.69h0c0,1.18-.13,2.24-.38,3.18-.25.94-.66,1.69-1.22,2.25l1.6,10.82h-3.28l-1.43-9.72h-.84v9.72h-3.28v.08h8.89V8.78h-8.89Z" fill="#d3d609"/><path d="M14.16,25.24c.45,0,.75-.27.9-.82.15-.55.23-1.35.23-2.42v-6.69c0-1.07-.08-1.87-.23-2.42-.15-.55-.46-.82-.9-.82h-1.14v13.17h1.14Z" fill="#d3d609"/><path d="M29.28,39.21h3.57c-.69-.12-1.54-.42-2.22-1.13-.72-.76-.92-1.66-1.05-2.22-.07-.32-.12-.67-.14-2.49,0-.83,0-1.52,0-2.02,1.08,0,2.17,0,3.25,0-.03,1.84-.02,2.62,0,2.96,0,.03.04.67.04.67.05.12.2.5.61.72.35.19.93.29,1.32-.07.32-.29.32-.73.31-.82,0-.48.01-.96.02-1.43v-4.92c-.39.15-1.73.61-3.16.03-.74-.3-1.2-.76-1.34-.9-.68-.7-.9-1.47-.99-1.82-.24-.89-.15-1.64-.06-2.06v-14.9c.54-.03,1.12-.05,1.73-.05.54,0,1.06.02,1.56.05v14.9c.01.52.02,1.04.04,1.56.17.51.66.84,1.18.81.46-.03.86-.35,1.01-.81.02-.52.03-1.04.05-1.56v-14.9h0c.48-.05,1.01-.08,1.58-.08.62,0,1.19.03,1.7.08v24.58c-.02.9-.04,1.79-.06,2.69-.11.42-.38,1.24-1.11,1.97-.77.77-1.68,1.07-2.34,1.18h3.56V8.7h-9.05v30.51Z" fill="#d3d609"/><path d="M23.97,12.07c-.34,0-.61.11-.82.34-.21.22-.32.65-.32,1.26v7.83h2.27v-7.83c0-.62-.11-1.04-.32-1.26-.21-.22-.48-.34-.82-.34Z" fill="#d3d609"/><path d="M46.21,0H1.79c-.48,0-.93.19-1.27.53-.34.34-.53.79-.53,1.27v44.41c0,.48.19.93.53,1.27.34.34.79.53,1.27.53h44.41c.48,0,.93-.19,1.27-.53s.53-.79.53-1.27V1.79c0-.48-.19-.93-.53-1.27s-.79-.53-1.27-.53ZM18.63,38.32h-8.89V8.78h0s8.89,0,8.89,0v29.54ZM28.39,38.25h-8.84v-3.28h8.84v3.28ZM28.39,32.82h-3.28v-8.04h-2.27v8.04h-3.28V13.67c0-1.52.38-2.71,1.14-3.58.76-.87,1.85-1.31,3.28-1.31s2.53.44,3.28,1.31c.76.87,1.14,2.06,1.14,3.58v19.15ZM38.32,39.21h-9.05V8.7h9.05v30.51Z" fill="#d3d609"/><path d="M13.03,28.52h.84l1.43,9.72h3.28l-1.6-10.82c.56-.56.97-1.31,1.22-2.25.25-.94.38-2,.38-3.18h0v-6.69c0-1.94-.35-3.51-1.05-4.71-.7-1.21-1.82-1.81-3.37-1.81h-4.42v29.46h3.28v-9.72ZM13.03,12.07h1.14c.45,0,.75.27.9.82.15.55.23,1.35.23,2.42v6.69c0,1.07-.08,1.87-.23,2.42-.15.55-.46.82-.9.82h0s-1.14,0-1.14,0v-13.17Z" fill="#141414"/><path d="M19.55,34.96v3.28h8.84v-3.28h-8.84Z" fill="#141414"/><path d="M23.97,8.78c-1.43,0-2.53.44-3.28,1.31-.76.87-1.14,2.06-1.14,3.58v19.15h3.28v-8.04h2.27v8.04h3.28V13.67c0-1.52-.38-2.71-1.14-3.58-.76-.87-1.85-1.31-3.28-1.31ZM25.1,21.49h-2.27v-7.83c0-.62.11-1.04.32-1.26.21-.22.48-.34.82-.34s.61.11.82.34c.21.22.32.65.32,1.26v7.83Z" fill="#141414"/><path d="M38.22,36.05c.02-.9.04-1.79.06-2.69V8.78c-.52-.05-1.09-.08-1.7-.08-.57,0-1.1.03-1.58.08h0v14.9c-.02.52-.03,1.04-.05,1.56-.15.45-.55.77-1.01.81-.51.04-1-.29-1.18-.81-.01-.52-.02-1.04-.04-1.56v-14.9c-.49-.03-1.01-.05-1.56-.05-.61,0-1.18.02-1.73.05v14.9c-.08.42-.18,1.17.06,2.06.09.35.31,1.12.99,1.82.14.15.6.6,1.34.9,1.43.58,2.78.12,3.16-.03v4.92c0,.48-.01.96-.02,1.43,0,.09,0,.53-.31.82-.39.36-.98.25-1.32.07-.41-.22-.57-.6-.61-.72,0,0-.04-.64-.04-.67-.02-.34-.03-1.11,0-2.96-1.08,0-2.17,0-3.25,0,0,.5,0,1.19,0,2.02.02,1.82.07,2.17.14,2.49.13.57.34,1.47,1.05,2.22.68.71,1.53,1.01,2.22,1.13h1.92c.66-.11,1.56-.41,2.34-1.18.73-.73,1-1.56,1.11-1.97Z" fill="#141414"/></g></svg>