<?xml version="1.0" encoding="UTF-8"?><svg id="b" xmlns="http://www.w3.org/2000/svg" width="512" height="512" viewBox="0 0 512 512"><g id="c"><path d="M19.14,0H0v19.14c0-5.08,2.01-9.94,5.6-13.53C9.19,2.01,14.06,0,19.14,0Z" fill="none"/><path d="M492.86,512h19.14v-19.14c0,5.08-2.02,9.94-5.61,13.53s-8.45,5.61-13.53,5.61Z" fill="none"/><path d="M0,492.86v19.14h19.14c-5.08,0-9.94-2.02-13.53-5.61-3.59-3.59-5.6-8.45-5.6-13.53Z" fill="none"/><path d="M492.86,0c5.08,0,9.94,2.01,13.53,5.6s5.61,8.46,5.61,13.53V0h-19.14Z" fill="none"/><path d="M103.93,93.69h47.14c16.46,0,28.43,6.44,35.91,19.31,7.48,12.87,11.23,29.63,11.23,50.29v71.38h0c0,12.57-1.35,23.87-4.05,33.89-2.69,10.03-7.03,18.03-13.02,24.02l17.06,115.38h-35.02l-15.27-103.7h-8.98v103.7h-35.02v.84h94.8V93.68h-94.8Z" fill="#d3d609"/><path d="M151.06,269.23c4.78,0,8-2.92,9.65-8.75,1.64-5.83,2.47-14.44,2.47-25.81v-71.38c0-11.37-.82-19.98-2.47-25.82-1.65-5.83-4.87-8.76-9.65-8.76h-12.12v140.52h12.12Z" fill="#d3d609"/><path d="M312.28,418.26h38.11c-7.34-1.29-16.44-4.46-23.64-12.08-7.65-8.09-9.85-17.68-11.23-23.73-.79-3.43-1.31-7.12-1.49-26.57-.08-8.84-.05-16.23,0-21.55,11.57-.01,23.13-.03,34.69-.04-.36,19.68-.25,27.9-.04,31.52.02.33.42,7.11.42,7.12.48,1.3,2.18,5.39,6.52,7.73,3.69,2,9.97,3.1,14.1-.71,3.41-3.13,3.37-7.78,3.34-8.78.07-5.1.15-10.2.23-15.3v-52.53c-4.13,1.57-18.5,6.47-33.73.27-7.86-3.2-12.8-8.07-14.31-9.63-7.25-7.51-9.55-15.69-10.55-19.41-2.54-9.46-1.56-17.51-.67-21.97V93.69c5.8-.34,11.95-.54,18.41-.52,5.8.02,11.34.21,16.61.52v158.93c.13,5.55.27,11.09.4,16.64,1.82,5.46,7.05,8.98,12.54,8.59,4.89-.35,9.17-3.76,10.76-8.59.18-5.54.37-11.09.55-16.64V93.69h0c5.15-.49,10.79-.81,16.83-.83,6.57-.03,12.66.3,18.19.83v262.19c-.23,9.57-.44,19.14-.67,28.7-1.15,4.47-4.07,13.26-11.84,21.06-8.23,8.27-17.9,11.4-24.92,12.62h37.92V92.84h-96.52v325.43Z" fill="#d3d609"/><path d="M255.66,128.71c-3.59,0-6.51,1.2-8.75,3.59-2.25,2.39-3.37,6.88-3.37,13.47v83.5h24.24v-83.5c0-6.58-1.12-11.07-3.36-13.47-2.25-2.39-5.16-3.59-8.76-3.59Z" fill="#d3d609"/><path d="M492.86,0H19.14c-5.08,0-9.94,2.01-13.53,5.6C2.01,9.19,0,14.06,0,19.14v473.73c0,5.08,2.01,9.94,5.6,13.53,3.59,3.59,8.46,5.61,13.53,5.61h473.73c5.08,0,9.94-2.02,13.53-5.61s5.61-8.45,5.61-13.53V19.14c0-5.08-2.02-9.94-5.61-13.53s-8.45-5.6-13.53-5.6ZM198.72,408.8h-94.8V93.69h0s94.8,0,94.8,0v315.12ZM302.8,407.96h-94.28v-35.02h94.28v35.02ZM302.8,350.04h-35.02v-85.75h-24.24v85.75h-35.02v-204.27c0-16.16,4.04-28.88,12.12-38.16,8.08-9.28,19.76-13.92,35.02-13.92s26.94,4.65,35.02,13.92c8.08,9.27,12.12,21.99,12.12,38.16v204.27ZM408.8,418.26h-96.52V92.84h96.52v325.43Z" fill="#d3d609"/><path d="M138.94,304.25h8.98l15.27,103.7h35.02l-17.06-115.38c5.98-5.98,10.32-13.99,13.02-24.02,2.7-10.02,4.05-21.32,4.05-33.89h0v-71.38c0-20.66-3.74-37.41-11.23-50.29-7.48-12.87-19.45-19.31-35.91-19.31h-47.14v314.27h35.02v-103.7ZM138.94,128.71h12.12c4.78,0,8,2.92,9.65,8.76,1.64,5.84,2.47,14.44,2.47,25.82v71.38c0,11.37-.82,19.98-2.47,25.81-1.65,5.83-4.87,8.75-9.65,8.75h0s-12.12,0-12.12,0v-140.52Z" fill="#141414"/><path d="M208.52,372.94v35.02h94.28v-35.02h-94.28Z" fill="#141414"/><path d="M255.66,93.69c-15.26,0-26.94,4.65-35.02,13.92-8.08,9.27-12.12,21.99-12.12,38.16v204.27h35.02v-85.75h24.24v85.75h35.02v-204.27c0-16.16-4.05-28.88-12.12-38.16-8.08-9.28-19.75-13.92-35.02-13.92ZM267.79,229.27h-24.24v-83.5c0-6.58,1.12-11.07,3.37-13.47,2.24-2.39,5.16-3.59,8.75-3.59s6.51,1.2,8.76,3.59c2.24,2.39,3.36,6.88,3.36,13.47v83.5Z" fill="#141414"/><path d="M407.63,384.58c.23-9.57.44-19.14.67-28.7V93.69c-5.53-.52-11.62-.85-18.19-.83-6.05.02-11.68.34-16.83.83h0v158.93c-.18,5.55-.37,11.09-.55,16.64-1.58,4.83-5.87,8.23-10.76,8.59-5.49.4-10.72-3.13-12.54-8.59-.13-5.54-.27-11.09-.4-16.64V93.69c-5.27-.31-10.81-.5-16.61-.52-6.46-.02-12.6.17-18.41.52v158.93c-.89,4.46-1.87,12.51.67,21.97,1,3.73,3.3,11.9,10.55,19.41,1.5,1.56,6.45,6.43,14.31,9.63,15.23,6.2,29.61,1.3,33.73-.27v52.53c-.07,5.1-.15,10.2-.23,15.3.03,1,.07,5.64-3.34,8.78-4.13,3.81-10.41,2.71-14.1.71-4.34-2.34-6.04-6.43-6.52-7.73,0,0-.4-6.78-.42-7.12-.21-3.62-.32-11.85.04-31.52-11.57.01-23.13.03-34.69.04-.05,5.32-.08,12.71,0,21.55.18,19.45.71,23.14,1.49,26.57,1.38,6.05,3.58,15.64,11.23,23.73,7.2,7.62,16.3,10.79,23.64,12.08h20.49c7.02-1.22,16.69-4.35,24.92-12.62,7.77-7.8,10.69-16.59,11.84-21.06Z" fill="#141414"/></g></svg>