<?xml version="1.0" encoding="UTF-8"?>
<svg id="Layer_1" xmlns="http://www.w3.org/2000/svg" version="1.1" viewBox="0 0 1000 1000">
  <!-- Generator: Adobe Illustrator 29.0.1, SVG Export Plug-In . SVG Version: 2.1.0 Build 192)  -->
  <defs>
    <style>
      .st0 {
        fill:rgb(250, 246, 7);
      }
    </style>
  </defs>
  <path class="st0" d="M347.9,444c0,33.1-3.6,62.9-10.7,89.4-7.1,26.4-18.5,47.5-34.3,63.3l45,304.3h-93.1l-40.1-273h-23.7v273h-92s0-829,0-829h124.5c43.5,0,75.1,17,94.9,50.9,19.7,33.9,29.6,78.1,29.6,132.7v188.4h-.1ZM223,535.1c12.6,0,21.2-7.7,25.5-23.1,4.3-15.4,6.5-38.1,6.5-68.1v-188.6c0-30-2.2-52.8-6.5-68.2-4.3-15.4-12.8-23.1-25.4-23.1h-32.1v371h32Z"/>
  <path class="st0" d="M498.4,72.2c40.3,0,71.1,12.2,92.5,36.7s32.1,58,32.1,100.6v538.5h-92v-226h-64v226h-93V209.5c0-42.6,10.6-76.1,32-100.6s52.2-36.7,92.5-36.7ZM374,901v-92h249v92h-249,0ZM531,430v-220.1c0-17.4-3-29.2-8.9-35.5-5.9-6.3-13.6-9.5-23.1-9.5s-17.2,3.2-23.1,9.5-8.9,18.2-8.9,35.5v220.1h64Z"/>
  <path class="st0" d="M808.9,72c13.6-1.3,77.6-1.4,92.1,0v691.2c-.6,25.2-1.2,50.5-1.8,75.7-3,11.8-10.7,35-31.1,55.5-32.7,32.9-73.9,35-86.9,35.4-10.6.4-60.7,2.1-94.7-34-20.2-21.3-25.9-46.6-29.5-62.6-2.1-9.1-3.5-18.8-3.9-70.1-.2-23.3,0-42.8,0-56.8,30.4,0,60.9,0,91.3,0-1,51.9-.7,73.6,0,83.1,0,.9,1.1,18.8,1.1,18.8,1.3,3.4,5.8,14.2,17.2,20.4,9.7,5.3,26.2,8.2,37.1-1.9,9-8.3,8.9-20.5,8.8-23.1.2-13.4.4-26.9.6-40.3v-138.4c-10.9,4.1-48.7,17.1-88.8.7-8.6-3.5-24.5-9.7-37.7-25.4-6.2-7.4-10.3-15-14.1-24.5-12.2-30.3-15.1-62.5-15.4-84.5V72.2c15.3-.9,78.1-.9,92,0v418.9c.2,7.6.4,14.9.6,21.9.6,22.3.9,25.1,2.9,28.8,5.2,9.5,17.5,17,30.8,15.9,11.1-1,20.5-7.7,25.1-15.7,1.7-2.9,2.9-6.4,4-28.8.4-9.1.6-16.7.7-22,0-139.7,0-279.4,0-419.1Z"/>
</svg>