<svg width="430" height="291" viewBox="0 0 430 291" fill="none" xmlns="http://www.w3.org/2000/svg">
<g filter="url(#filter0_d_1030_397)">
<path d="M0 25.8428C0 24.0942 0 23.2199 0.530733 22.6453C1.06147 22.0706 1.92045 22.0022 3.6384 21.8654C25.6144 20.1156 142.227 11.125 218.282 11.125C294.165 11.125 405.095 20.0747 426.392 21.8533C428.093 21.9954 428.944 22.0665 429.472 22.6405C430 23.2146 430 24.0855 430 25.8272V258.125C430 260.011 430 260.953 429.414 261.539C428.828 262.125 427.886 262.125 426 262.125H4C2.11438 262.125 1.17157 262.125 0.585786 261.539C0 260.953 0 260.011 0 258.125V25.8428Z" fill="url(#paint0_linear_1030_397)"/>
<path d="M429.5 25.8272V258.125C429.5 259.082 429.499 259.749 429.431 260.253C429.365 260.742 429.245 261.001 429.061 261.186C428.876 261.37 428.617 261.49 428.128 261.556C427.624 261.624 426.957 261.625 426 261.625H4C3.04305 261.625 2.37565 261.624 1.87208 261.556C1.3829 261.49 1.12385 261.37 0.93934 261.186C0.754831 261.001 0.634534 260.742 0.568765 260.253C0.501062 259.749 0.5 259.082 0.5 258.125V25.8428C0.5 24.9549 0.500994 24.3376 0.562148 23.8684C0.621426 23.4136 0.730023 23.1664 0.898049 22.9845C1.06705 22.8015 1.30292 22.6744 1.74392 22.5801C2.20002 22.4825 2.80549 22.4333 3.67809 22.3638C25.6573 20.6137 142.25 11.625 218.282 11.625C294.141 11.625 405.05 20.5727 426.35 22.3516C427.214 22.4238 427.814 22.4748 428.265 22.5734C428.701 22.6687 428.935 22.7958 429.104 22.9791C429.271 23.1609 429.379 23.4075 429.438 23.8605C429.499 24.328 429.5 24.9428 429.5 25.8272Z" stroke="url(#paint1_linear_1030_397)"/>
</g>
<path d="M17.5297 48.2328C17.5952 44.1821 20.607 40.8297 24.6392 40.4368C51.7524 37.7948 151.766 28.5591 219.478 29.1245C284.383 29.6664 380.001 39.718 406.482 42.635C410.52 43.0798 413.503 46.4874 413.503 50.5498V104.125C413.503 108.543 409.921 112.125 405.503 112.125H24.6274C20.1586 112.125 16.5562 108.464 16.6285 103.995L17.5297 48.2328Z" fill="url(#paint2_linear_1030_397)" stroke="url(#paint3_linear_1030_397)"/>
<g opacity="0.43">
<path d="M214.201 62.931L214.201 62.9309C214.421 62.7336 214.705 62.625 215 62.625C215.294 62.625 215.578 62.7336 215.799 62.9309L215.799 62.931L219.151 65.9291L219.829 66.5358L219.977 65.6379L220.19 64.3485C220.19 64.3485 220.19 64.3485 220.19 64.3485C220.198 64.3018 220.215 64.2573 220.24 64.2174L219.814 63.954L220.24 64.2174C220.264 64.1775 220.296 64.1431 220.334 64.116C220.372 64.089 220.414 64.0697 220.459 64.0593C220.503 64.0489 220.55 64.0474 220.595 64.055C220.64 64.0625 220.683 64.079 220.723 64.1036C220.762 64.1282 220.796 64.1604 220.823 64.1986C220.85 64.2368 220.87 64.2801 220.88 64.3262L221.368 64.2138L220.88 64.3262C220.891 64.3722 220.893 64.42 220.885 64.4667L220.885 64.4668L220.496 66.821L220.452 67.092L220.656 67.2751L222.894 69.2771C222.958 69.3403 222.996 69.4262 223 69.5176C223.004 69.6112 222.971 69.7021 222.91 69.7713C222.849 69.8404 222.764 69.8823 222.674 69.8891C222.586 69.8958 222.499 69.8687 222.429 69.8126L222.041 69.466L221.308 68.8108L221.21 69.7893L220.54 76.5314L220.54 76.5315C220.51 76.8322 220.37 77.1103 220.148 77.3122C219.927 77.5139 219.639 77.6251 219.341 77.625H219.341H210.658C210.361 77.625 210.073 77.5137 209.852 77.312C209.63 77.1101 209.49 76.8321 209.46 76.5315L208.791 69.7894L208.693 68.812L207.96 69.4656L207.571 69.8125C207.502 69.8686 207.414 69.8958 207.326 69.8891C207.236 69.8823 207.151 69.8404 207.09 69.7713C207.029 69.7021 206.996 69.6112 207 69.5176C207.004 69.4262 207.042 69.3403 207.106 69.2772L214.201 62.931ZM209.517 68.073L209.279 68.2859L209.372 68.5913C209.378 68.6094 209.382 68.6313 209.386 68.6606C209.386 68.661 209.386 68.6614 209.386 68.6618L210.161 76.4606L210.206 76.9112H210.658H219.341H219.794L219.838 76.4606L220.613 68.6618C220.614 68.6614 220.614 68.661 220.614 68.6606C220.616 68.6349 220.621 68.6107 220.628 68.5894L220.718 68.2854L220.482 68.0739L215.333 63.4666L215 63.1683L214.666 63.4665L209.517 68.073Z" stroke="url(#paint4_linear_1030_397)"/>
<path d="M266.299 75.5892C265.981 75.4316 265.734 75.2204 265.559 74.9557C265.383 74.6909 265.296 74.3935 265.296 74.0634V69.9373L263.002 68.7984C262.827 68.7124 262.699 68.6049 262.619 68.476C262.54 68.3471 262.5 68.2038 262.5 68.0462C262.5 67.8886 262.54 67.7453 262.619 67.6164C262.699 67.4875 262.827 67.38 263.002 67.2941L271.078 63.3399C271.222 63.2683 271.369 63.2144 271.521 63.1783C271.672 63.1422 271.828 63.1244 271.986 63.125C272.145 63.1256 272.3 63.1436 272.453 63.1792C272.605 63.2147 272.752 63.2683 272.894 63.3399L281.998 67.8098C282.158 67.8815 282.281 67.9855 282.369 68.1219C282.457 68.2582 282.501 68.4049 282.5 68.562V74.0634C282.5 74.3069 282.408 74.5112 282.225 74.6763C282.041 74.8413 281.814 74.9236 281.544 74.923C281.274 74.9224 281.047 74.8399 280.864 74.6754C280.68 74.511 280.588 74.3069 280.588 74.0634V68.9918L278.677 69.9373V74.0634C278.677 74.3929 278.589 74.6903 278.414 74.9557C278.239 75.221 277.992 75.4322 277.673 75.5892L272.894 77.9101C272.751 77.9817 272.604 78.0356 272.453 78.0717C272.302 78.1078 272.146 78.1256 271.986 78.125C271.826 78.1244 271.671 78.1066 271.52 78.0717C271.369 78.0367 271.222 77.9829 271.078 77.9101L266.299 75.5892ZM271.986 71.2267L278.533 68.0462L271.986 64.8657L265.439 68.0462L271.986 71.2267ZM271.986 76.4058L276.765 74.0849V70.8399L272.918 72.7525C272.775 72.8241 272.623 72.878 272.464 72.9141C272.305 72.9502 272.146 72.968 271.986 72.9674C271.827 72.9668 271.668 72.9491 271.508 72.9141C271.349 72.8792 271.198 72.8253 271.054 72.7525L267.207 70.8399V74.0849L271.986 76.4058Z" fill="url(#paint5_linear_1030_397)"/>
<path d="M161.429 65.3432C161.429 65.3432 161.429 63.125 159 63.125C156.571 63.125 156.571 65.3432 156.571 65.3432M154.143 77.125V65.3432M163.857 77.125V71.2341V65.3432M167.5 65.3432H150.5V77.125H167.5V65.3432Z" stroke="url(#paint6_linear_1030_397)" stroke-width="1.8" stroke-linecap="round" stroke-linejoin="round"/>
<path d="M98.6441 65.125H96.3934C96.2655 65.125 96.1428 65.196 96.0524 65.3223C95.9619 65.4487 95.9111 65.62 95.9111 65.7987V75.6794C95.9111 75.7679 95.9236 75.8555 95.9478 75.9372C95.9721 76.0189 96.0076 76.0932 96.0524 76.1558C96.0972 76.2183 96.1503 76.2679 96.2089 76.3018C96.2674 76.3356 96.3301 76.3531 96.3934 76.3531H98.6441C98.7075 76.3531 98.7702 76.3356 98.8287 76.3018C98.8872 76.2679 98.9404 76.2183 98.9852 76.1558C99.03 76.0932 99.0655 76.0189 99.0897 75.9372C99.114 75.8555 99.1264 75.7679 99.1264 75.6794V65.7987C99.1264 65.62 99.0756 65.4487 98.9852 65.3223C98.8947 65.196 98.7721 65.125 98.6441 65.125ZM108.29 65.125H106.039C105.911 65.125 105.789 65.196 105.698 65.3223C105.608 65.4487 105.557 65.62 105.557 65.7987V75.6794C105.557 75.7679 105.57 75.8555 105.594 75.9372C105.618 76.0189 105.654 76.0932 105.698 76.1558C105.743 76.2183 105.796 76.2679 105.855 76.3018C105.913 76.3356 105.976 76.3531 106.039 76.3531H108.29C108.353 76.3531 108.416 76.3356 108.475 76.3018C108.533 76.2679 108.586 76.2183 108.631 76.1558C108.676 76.0932 108.711 76.0189 108.736 75.9372C108.76 75.8555 108.772 75.7679 108.772 75.6794V65.7987C108.772 65.62 108.722 65.4487 108.631 65.3223C108.541 65.196 108.418 65.125 108.29 65.125Z" stroke="url(#paint7_linear_1030_397)" stroke-width="2" stroke-linecap="round" stroke-linejoin="round"/>
<path d="M99.1268 70.7395H105.557M93.5 73.4343V68.0448C93.5 67.8661 93.5508 67.6948 93.6413 67.5684C93.7317 67.4421 93.8544 67.3711 93.9823 67.3711H95.4292C95.5571 67.3711 95.6798 67.4421 95.7702 67.5684C95.8607 67.6948 95.9115 67.8661 95.9115 68.0448V73.4343C95.9115 73.6129 95.8607 73.7843 95.7702 73.9106C95.6798 74.037 95.5571 74.1079 95.4292 74.1079H93.9823C93.8544 74.1079 93.7317 74.037 93.6413 73.9106C93.5508 73.7843 93.5 73.6129 93.5 73.4343ZM111.184 73.4343V68.0448C111.184 67.8661 111.133 67.6948 111.043 67.5684C110.953 67.4421 110.83 67.3711 110.702 67.3711H109.255C109.127 67.3711 109.004 67.4421 108.914 67.5684C108.824 67.6948 108.773 67.8661 108.773 68.0448V73.4343C108.773 73.6129 108.824 73.7843 108.914 73.9106C109.004 74.037 109.127 74.1079 109.255 74.1079H110.702C110.83 74.1079 110.953 74.037 111.043 73.9106C111.133 73.7843 111.184 73.6129 111.184 73.4343Z" stroke="url(#paint8_linear_1030_397)" stroke-width="2" stroke-linecap="round" stroke-linejoin="round"/>
<path d="M333.5 72.525H330.5V75.325H327.5V72.525H324.5V69.725H327.5V66.925H330.5V69.725H333.5M335 64.125H323C322.175 64.125 321.5 64.755 321.5 65.525V76.725C321.5 77.495 322.175 78.125 323 78.125H335C335.825 78.125 336.5 77.495 336.5 76.725V65.525C336.5 64.755 335.825 64.125 335 64.125ZM335 76.725H323V65.525H335V76.725Z" fill="url(#paint9_linear_1030_397)"/>
</g>
<g filter="url(#filter1_di_1030_397)">
<circle cx="215" cy="183.125" r="88" fill="url(#paint10_linear_1030_397)"/>
<circle cx="215" cy="183.125" r="87.4" stroke="url(#paint11_linear_1030_397)" stroke-width="1.2"/>
</g>
<path d="M228.057 115.045C223.076 109.988 213.619 109.241 207.321 112.273C207.126 112.398 206.89 112.607 206.937 112.849C208.779 112.607 210.561 112.364 212.437 112.456C222.964 112.811 231.992 122.818 220.932 130.337C220.763 130.448 220.103 130.587 220.433 130.906C220.622 131.084 221.297 130.841 221.566 130.762C228.775 128.804 234.172 121.428 228.057 115.043V115.045Z" fill="url(#paint12_linear_1030_397)" fill-opacity="0.39"/>
<path d="M221.943 132.828C216.328 133.517 210.371 132.501 206.396 128.347C202.928 124.716 203.501 119.724 207.246 116.52C207.847 116.009 209.142 115.387 209.54 114.881C209.776 114.579 209.573 114.553 209.29 114.567C208.257 114.613 205.822 115.714 204.871 116.237C200.776 118.503 197.908 123.07 199.973 127.637C203.408 135.219 216.019 136.738 222.929 133.128L223.2 132.8C222.769 132.493 222.364 132.774 221.945 132.826L221.943 132.828Z" fill="url(#paint13_linear_1030_397)" fill-opacity="0.39"/>
<path d="M211.127 123.555C215.586 124.219 214.052 128.107 214.939 131.189L215.141 131.124L215.242 128.799C215.452 127.462 215.391 125.549 216.457 124.539C217.881 123.183 221.262 123.418 223.172 123.19C223.823 123.085 223.067 122.884 222.835 122.876C221.107 122.717 217.74 122.816 216.464 121.592C215.85 121.001 215.485 119.652 215.391 118.834L215.12 114.869C214.904 114.824 214.816 114.994 214.79 115.171C214.494 117.098 214.96 120.139 213.406 121.625C212.13 122.851 208.919 122.66 207.198 122.87C206.449 122.962 206.239 123.185 207.15 123.244L207.124 123.251C208.419 123.338 209.83 123.343 211.127 123.559V123.555Z" fill="url(#paint14_linear_1030_397)" fill-opacity="0.39"/>
<circle cx="215.002" cy="202.314" r="54.5" fill="url(#paint15_linear_1030_397)" stroke="url(#paint16_linear_1030_397)"/>
<g filter="url(#filter2_i_1030_397)">
<path d="M215.142 165.215L214.645 165.125C192.189 165.143 174.018 183.303 174 205.582C173.994 213.578 175.898 219.544 179.216 225.396C204.873 214.563 215.142 195.854 215.142 165.215Z" fill="url(#paint17_linear_1030_397)"/>
<path d="M207.359 215.693C213.47 200.412 214.238 187.347 214.238 187.347C214.238 187.347 211.571 200.612 206.418 209.861C197.911 225.133 188.708 231.075 184.315 233.182C186.376 235.508 188.699 237.589 191.231 239.388H191.285C191.285 239.379 201.247 230.975 207.359 215.693Z" fill="url(#paint18_linear_1030_397)"/>
<path d="M213.271 221.467C214.672 205.986 214.934 189.969 214.934 189.969C214.934 189.969 212.023 211.419 209.655 220.704C207.214 230.28 199.946 243.971 199.946 243.971L199.891 244.08C202.802 245.225 205.867 246.033 209.058 246.479L209.284 246.37C209.284 246.37 211.788 237.875 213.271 221.476V221.467Z" fill="url(#paint19_linear_1030_397)"/>
<path d="M250.427 225.396C253.573 219.601 255.354 212.961 255.354 205.905C255.354 183.81 237.843 165.823 215.992 165.125L215.667 165.188C215.667 195.628 225.629 214.394 250.427 225.396Z" fill="url(#paint20_linear_1030_397)"/>
<path d="M245.482 232.955C240.79 230.466 232.292 224.324 224.391 210.142C219.238 200.894 216.571 187.629 216.571 187.629C216.571 187.629 217.33 200.694 223.45 215.975C228.658 228.994 236.658 237.016 238.909 239.106C241.323 237.307 243.52 235.236 245.482 232.955Z" fill="url(#paint21_linear_1030_397)"/>
<path d="M215.875 190.064C215.875 190.064 216.128 206.081 217.529 221.562C218.93 237.089 221.254 245.52 221.498 246.383C224.689 245.838 227.763 244.93 230.655 243.685C229.48 241.423 223.351 229.439 221.145 220.799C218.777 211.514 215.875 190.064 215.875 190.064Z" fill="url(#paint22_linear_1030_397)"/>
</g>
<path d="M215.142 165.215L214.645 165.125C192.189 165.143 174.018 183.303 174 205.582C173.994 213.578 175.898 219.544 179.216 225.396C204.873 214.563 215.142 195.854 215.142 165.215Z" stroke="url(#paint23_linear_1030_397)" stroke-width="0.5"/>
<path d="M207.359 215.693C213.47 200.412 214.238 187.347 214.238 187.347C214.238 187.347 211.571 200.612 206.418 209.861C197.911 225.133 188.708 231.075 184.315 233.182C186.376 235.508 188.699 237.589 191.231 239.388H191.285C191.285 239.379 201.247 230.975 207.359 215.693Z" stroke="url(#paint24_linear_1030_397)" stroke-width="0.5"/>
<path d="M213.271 221.467C214.672 205.986 214.934 189.969 214.934 189.969C214.934 189.969 212.023 211.419 209.655 220.704C207.214 230.28 199.946 243.971 199.946 243.971L199.891 244.08C202.802 245.225 205.867 246.033 209.058 246.479L209.284 246.37C209.284 246.37 211.788 237.875 213.271 221.476V221.467Z" stroke="url(#paint25_linear_1030_397)" stroke-width="0.5"/>
<path d="M250.427 225.396C253.573 219.601 255.354 212.961 255.354 205.905C255.354 183.81 237.843 165.823 215.992 165.125L215.667 165.188C215.667 195.628 225.629 214.394 250.427 225.396Z" stroke="url(#paint26_linear_1030_397)" stroke-width="0.5"/>
<path d="M245.482 232.955C240.79 230.466 232.292 224.324 224.391 210.142C219.238 200.894 216.571 187.629 216.571 187.629C216.571 187.629 217.33 200.694 223.45 215.975C228.658 228.994 236.658 237.016 238.909 239.106C241.323 237.307 243.52 235.236 245.482 232.955Z" stroke="url(#paint27_linear_1030_397)" stroke-width="0.5"/>
<path d="M215.875 190.064C215.875 190.064 216.128 206.081 217.529 221.562C218.93 237.089 221.254 245.52 221.498 246.383C224.689 245.838 227.763 244.93 230.655 243.685C229.48 241.423 223.351 229.439 221.145 220.799C218.777 211.514 215.875 190.064 215.875 190.064Z" stroke="url(#paint28_linear_1030_397)" stroke-width="0.5"/>
<g filter="url(#filter3_d_1030_397)">
<path d="M123.419 123.125C126.635 123.125 128.666 126.804 127.121 129.624C117.625 146.953 96.3183 195.89 129.56 239.107C131.689 241.874 129.827 246.125 126.336 246.125H21C18.7909 246.125 17 244.334 17 242.125L17 127.126C17 124.917 18.7908 123.126 21 123.126L123.419 123.125Z" fill="url(#paint29_linear_1030_397)"/>
<path d="M123.419 123.625C126.227 123.625 128.059 126.872 126.682 129.384C117.176 146.731 95.7209 195.933 129.164 239.412C131.071 241.891 129.362 245.625 126.336 245.625H21C19.067 245.625 17.5 244.058 17.5 242.125L17.5 127.126C17.5 125.193 19.067 123.626 21 123.626L123.419 123.625Z" stroke="url(#paint30_linear_1030_397)"/>
</g>
<path d="M61.6471 178.91V207.734C61.6471 208.368 61.8888 208.976 62.319 209.425C62.7492 209.873 63.3327 210.125 63.9412 210.125C64.5496 210.125 65.1331 209.873 65.5634 209.425C65.9936 208.976 66.2353 208.368 66.2353 207.734V192.594C66.2353 192.171 66.3964 191.766 66.6832 191.467C66.9701 191.168 67.3591 191 67.7647 191C68.1703 191 68.5593 191.168 68.8462 191.467C69.133 191.766 69.2941 192.171 69.2941 192.594V207.734C69.2941 208.368 69.5358 208.976 69.966 209.425C70.3963 209.873 70.9798 210.125 71.5882 210.125C72.1967 210.125 72.7802 209.873 73.2104 209.425C73.6407 208.976 73.8824 208.368 73.8824 207.734V180.641C73.8824 180.429 73.9629 180.227 74.1063 180.077C74.2497 179.928 74.4442 179.844 74.6471 179.844C74.8499 179.844 75.0444 179.928 75.1878 180.077C75.3312 180.227 75.4118 180.429 75.4118 180.641V188.609C75.4118 189.243 75.6535 189.851 76.0837 190.3C76.5139 190.748 77.0974 191 77.7059 191C78.3143 191 78.8978 190.748 79.3281 190.3C79.7583 189.851 80 189.243 80 188.609V179.844C80 177.308 79.0332 174.875 77.3123 173.082C75.5914 171.289 73.2573 170.281 70.8235 170.281H62.3689C61.8942 170.281 61.4261 170.165 61.0016 169.943L59.9922 169.417C59.5711 169.198 59.2167 168.861 58.9688 168.444C58.7208 168.027 58.5891 167.546 58.5882 167.056V161.516C58.5882 160.882 58.3465 160.274 57.9163 159.825C57.4861 159.377 56.9026 159.125 56.2941 159.125C55.6857 159.125 55.1022 159.377 54.6719 159.825C54.2417 160.274 54 160.882 54 161.516V168.155C54 170.434 55.2358 172.522 57.1934 173.539L60.1176 175.062C61.0965 176.082 61.6471 177.466 61.6471 178.91Z" fill="url(#paint31_linear_1030_397)"/>
<path d="M67.7647 168.687C68.9816 168.687 70.1486 168.184 71.0091 167.287C71.8695 166.39 72.3529 165.174 72.3529 163.906C72.3529 162.638 71.8695 161.422 71.0091 160.525C70.1486 159.629 68.9816 159.125 67.7647 159.125C66.5478 159.125 65.3808 159.629 64.5203 160.525C63.6599 161.422 63.1765 162.638 63.1765 163.906C63.1765 165.174 63.6599 166.39 64.5203 167.287C65.3808 168.184 66.5478 168.687 67.7647 168.687Z" fill="url(#paint32_linear_1030_397)"/>
<g filter="url(#filter4_d_1030_397)">
<path d="M306.081 123.125C302.865 123.125 300.834 126.804 302.379 129.624C311.875 146.953 333.182 195.89 299.94 239.107C297.811 241.874 299.673 246.125 303.164 246.125H408.5C410.709 246.125 412.5 244.334 412.5 242.125L412.5 127.126C412.5 124.917 410.709 123.126 408.5 123.126L306.081 123.125Z" fill="url(#paint33_linear_1030_397)"/>
<path d="M306.081 123.625C303.273 123.625 301.441 126.872 302.818 129.384C312.324 146.731 333.779 195.933 300.336 239.412C298.429 241.891 300.138 245.625 303.164 245.625H408.5C410.433 245.625 412 244.058 412 242.125L412 127.126C412 125.193 410.433 123.626 408.5 123.626L306.081 123.625Z" stroke="url(#paint34_linear_1030_397)"/>
</g>
<path d="M364.153 189.942L358.563 199.439C358.259 199.992 357.574 200.171 357.011 199.857C356.463 199.544 356.265 198.841 356.585 198.303L362.832 187.696L364.153 189.942ZM375.656 169.143C376.554 169.247 377.756 169.711 378.852 170.338C382.657 172.506 384.088 175.839 387.787 177.931C389.4 178.843 390.815 179.187 391.485 179.56C392.261 180.009 392.627 180.756 392.14 181.578L386.021 191.996C385.336 193.162 384.377 193.49 383.281 193.386C382.383 193.281 381.196 192.818 380.1 192.175C376.295 190.008 374.849 186.69 371.166 184.582C369.918 183.895 368.807 183.521 368.091 183.252L367.532 184.203L366.211 181.959L372.931 170.548C373.616 169.382 374.575 169.038 375.656 169.143ZM376.569 186.137C377.634 187.273 378.67 188.424 379.963 189.38L381.942 186.017C380.587 185.046 379.568 184.104 378.472 182.908L376.569 186.137ZM381.942 186.017C382.231 186.226 382.52 186.391 382.901 186.6C383.997 187.228 384.986 187.631 385.808 187.841L387.893 184.313C387.269 184.149 386.188 183.775 384.971 183.073C384.636 182.893 384.332 182.669 384.012 182.49L381.942 186.017ZM371.09 178.185L369.294 181.219C370.268 181.488 371.455 182.146 372.307 182.624C372.566 182.774 372.81 182.908 373.053 183.073L375.032 179.725C374.651 179.456 374.393 179.276 373.89 179.007C372.612 178.29 371.607 178.096 371.09 178.185ZM375.032 179.725C376.386 180.711 377.3 181.713 378.472 182.908L380.542 179.366C379.446 178.245 378.502 177.184 377.117 176.212L375.032 179.725ZM380.542 179.366C381.607 180.517 382.672 181.563 384.012 182.49L385.823 179.396C384.408 178.469 383.342 177.408 382.322 176.347L380.542 179.366ZM373.16 174.658C373.708 174.553 374.697 174.748 375.96 175.465C376.28 175.659 376.752 175.958 377.117 176.212L378.928 173.089C378.548 172.82 378.137 172.551 377.695 172.296C377.3 172.072 376.158 171.43 375.078 171.385L373.16 174.658Z" fill="url(#paint35_linear_1030_397)"/>
<path d="M373.358 199.857C373.89 199.544 374.088 198.841 373.769 198.303L357.437 170.548C356.752 169.382 355.793 169.038 354.697 169.143C353.799 169.247 352.597 169.711 351.516 170.338C347.711 172.506 346.265 175.839 342.567 177.931C340.953 178.843 339.538 179.187 338.868 179.56C338.092 180.009 337.742 180.756 338.214 181.578L344.332 191.996C345.017 193.162 345.976 193.49 347.072 193.386C347.97 193.281 349.172 192.818 350.253 192.175C354.073 190.008 355.504 186.69 359.203 184.582C360.436 183.895 361.562 183.521 362.277 183.252L371.79 199.439C372.109 199.992 372.794 200.171 373.358 199.857ZM353.236 176.212L351.425 173.089C351.805 172.82 352.216 172.551 352.658 172.296C353.054 172.072 354.195 171.43 355.291 171.385L357.209 174.658C356.661 174.553 355.656 174.748 354.393 175.465C354.073 175.659 353.601 175.958 353.236 176.212ZM357.3 183.073L355.321 179.725C355.702 179.456 355.976 179.276 356.463 179.007C357.757 178.29 358.746 178.096 359.279 178.185L361.059 181.219C360.085 181.488 358.898 182.146 358.046 182.624C357.787 182.774 357.544 182.908 357.3 183.073ZM351.882 182.908L349.812 179.366C350.907 178.245 351.866 177.184 353.236 176.212L355.321 179.725C353.982 180.711 353.069 181.713 351.882 182.908ZM346.357 182.49L344.545 179.396C345.961 178.469 347.026 177.408 348.031 176.347L349.812 179.366C348.746 180.517 347.696 181.563 346.357 182.49ZM350.405 189.38L348.427 186.017C349.766 185.046 350.786 184.104 351.882 182.908L353.784 186.137C352.719 187.273 351.699 188.424 350.405 189.38ZM344.545 187.841L342.475 184.313C343.099 184.149 344.165 183.775 345.398 183.073C345.733 182.893 346.022 182.669 346.357 182.49L348.427 186.017C348.137 186.226 347.848 186.391 347.468 186.6C346.357 187.228 345.382 187.631 344.545 187.841Z" fill="url(#paint36_linear_1030_397)"/>
<defs>
<filter id="filter0_d_1030_397" x="-12.4" y="0.725" width="454.8" height="275.8" filterUnits="userSpaceOnUse" color-interpolation-filters="sRGB">
<feFlood flood-opacity="0" result="BackgroundImageFix"/>
<feColorMatrix in="SourceAlpha" type="matrix" values="0 0 0 0 0 0 0 0 0 0 0 0 0 0 0 0 0 0 127 0" result="hardAlpha"/>
<feOffset dy="2"/>
<feGaussianBlur stdDeviation="6.2"/>
<feComposite in2="hardAlpha" operator="out"/>
<feColorMatrix type="matrix" values="0 0 0 0 0 0 0 0 0 0 0 0 0 0 0 0 0 0 0.25 0"/>
<feBlend mode="normal" in2="BackgroundImageFix" result="effect1_dropShadow_1030_397"/>
<feBlend mode="normal" in="SourceGraphic" in2="effect1_dropShadow_1030_397" result="shape"/>
</filter>
<filter id="filter1_di_1030_397" x="111.1" y="82.225" width="207.8" height="207.8" filterUnits="userSpaceOnUse" color-interpolation-filters="sRGB">
<feFlood flood-opacity="0" result="BackgroundImageFix"/>
<feColorMatrix in="SourceAlpha" type="matrix" values="0 0 0 0 0 0 0 0 0 0 0 0 0 0 0 0 0 0 127 0" result="hardAlpha"/>
<feMorphology radius="2" operator="dilate" in="SourceAlpha" result="effect1_dropShadow_1030_397"/>
<feOffset dy="3"/>
<feGaussianBlur stdDeviation="6.95"/>
<feComposite in2="hardAlpha" operator="out"/>
<feColorMatrix type="matrix" values="0 0 0 0 0 0 0 0 0 0 0 0 0 0 0 0 0 0 0.49 0"/>
<feBlend mode="normal" in2="BackgroundImageFix" result="effect1_dropShadow_1030_397"/>
<feBlend mode="normal" in="SourceGraphic" in2="effect1_dropShadow_1030_397" result="shape"/>
<feColorMatrix in="SourceAlpha" type="matrix" values="0 0 0 0 0 0 0 0 0 0 0 0 0 0 0 0 0 0 127 0" result="hardAlpha"/>
<feOffset/>
<feGaussianBlur stdDeviation="7.6"/>
<feComposite in2="hardAlpha" operator="arithmetic" k2="-1" k3="1"/>
<feColorMatrix type="matrix" values="0 0 0 0 0.0812392 0 0 0 0 0.0602101 0 0 0 0 0.0111422 0 0 0 1 0"/>
<feBlend mode="normal" in2="shape" result="effect2_innerShadow_1030_397"/>
</filter>
<filter id="filter2_i_1030_397" x="173.75" y="164.874" width="81.8535" height="83.8623" filterUnits="userSpaceOnUse" color-interpolation-filters="sRGB">
<feFlood flood-opacity="0" result="BackgroundImageFix"/>
<feBlend mode="normal" in="SourceGraphic" in2="BackgroundImageFix" result="shape"/>
<feColorMatrix in="SourceAlpha" type="matrix" values="0 0 0 0 0 0 0 0 0 0 0 0 0 0 0 0 0 0 127 0" result="hardAlpha"/>
<feOffset dy="2"/>
<feGaussianBlur stdDeviation="3.15"/>
<feComposite in2="hardAlpha" operator="arithmetic" k2="-1" k3="1"/>
<feColorMatrix type="matrix" values="0 0 0 0 0.0879122 0 0 0 0 0.085677 0 0 0 0 0.0730106 0 0 0 0.49 0"/>
<feBlend mode="normal" in2="shape" result="effect1_innerShadow_1030_397"/>
</filter>
<filter id="filter3_d_1030_397" x="5" y="112.125" width="137.463" height="147" filterUnits="userSpaceOnUse" color-interpolation-filters="sRGB">
<feFlood flood-opacity="0" result="BackgroundImageFix"/>
<feColorMatrix in="SourceAlpha" type="matrix" values="0 0 0 0 0 0 0 0 0 0 0 0 0 0 0 0 0 0 127 0" result="hardAlpha"/>
<feMorphology radius="2" operator="dilate" in="SourceAlpha" result="effect1_dropShadow_1030_397"/>
<feOffset dy="1"/>
<feGaussianBlur stdDeviation="5"/>
<feComposite in2="hardAlpha" operator="out"/>
<feColorMatrix type="matrix" values="0 0 0 0 0 0 0 0 0 0 0 0 0 0 0 0 0 0 0.49 0"/>
<feBlend mode="normal" in2="BackgroundImageFix" result="effect1_dropShadow_1030_397"/>
<feBlend mode="normal" in="SourceGraphic" in2="effect1_dropShadow_1030_397" result="shape"/>
</filter>
<filter id="filter4_d_1030_397" x="287.037" y="112.125" width="137.463" height="147" filterUnits="userSpaceOnUse" color-interpolation-filters="sRGB">
<feFlood flood-opacity="0" result="BackgroundImageFix"/>
<feColorMatrix in="SourceAlpha" type="matrix" values="0 0 0 0 0 0 0 0 0 0 0 0 0 0 0 0 0 0 127 0" result="hardAlpha"/>
<feMorphology radius="2" operator="dilate" in="SourceAlpha" result="effect1_dropShadow_1030_397"/>
<feOffset dy="1"/>
<feGaussianBlur stdDeviation="5"/>
<feComposite in2="hardAlpha" operator="out"/>
<feColorMatrix type="matrix" values="0 0 0 0 0 0 0 0 0 0 0 0 0 0 0 0 0 0 0.49 0"/>
<feBlend mode="normal" in2="BackgroundImageFix" result="effect1_dropShadow_1030_397"/>
<feBlend mode="normal" in="SourceGraphic" in2="effect1_dropShadow_1030_397" result="shape"/>
</filter>
<linearGradient id="paint0_linear_1030_397" x1="78.4833" y1="47.2063" x2="137.708" y2="238.556" gradientUnits="userSpaceOnUse">
<stop stop-color="#242321"/>
<stop offset="0.541102" stop-color="#2C2C28"/>
<stop offset="0.841102" stop-color="#1D1D17"/>
<stop offset="1" stop-color="#22221C"/>
</linearGradient>
<linearGradient id="paint1_linear_1030_397" x1="113.252" y1="29.9142" x2="325.495" y2="110.872" gradientUnits="userSpaceOnUse">
<stop stop-color="#3F3B3B"/>
<stop offset="0.49" stop-color="#2D2C2C"/>
<stop offset="1" stop-color="#464646"/>
</linearGradient>
<linearGradient id="paint2_linear_1030_397" x1="47.2655" y1="37.9236" x2="57.835" y2="130.136" gradientUnits="userSpaceOnUse">
<stop stop-color="#141309"/>
<stop offset="0.53" stop-color="#111312"/>
<stop offset="0.92" stop-color="#10100F"/>
<stop offset="1" stop-color="#0F0D02"/>
</linearGradient>
<linearGradient id="paint3_linear_1030_397" x1="215" y1="37.9236" x2="215" y2="112.122" gradientUnits="userSpaceOnUse">
<stop stop-color="#234436"/>
<stop offset="1" stop-color="#154232"/>
</linearGradient>
<linearGradient id="paint4_linear_1030_397" x1="215" y1="61.6679" x2="215" y2="78.125" gradientUnits="userSpaceOnUse">
<stop stop-color="#2B7D1B"/>
<stop offset="1" stop-color="#5DBB4A"/>
</linearGradient>
<linearGradient id="paint5_linear_1030_397" x1="272.5" y1="62.6964" x2="272.5" y2="78.125" gradientUnits="userSpaceOnUse">
<stop stop-color="#2B7D1B"/>
<stop offset="1" stop-color="#5DBB4A"/>
</linearGradient>
<linearGradient id="paint6_linear_1030_397" x1="159" y1="62.725" x2="159" y2="77.125" gradientUnits="userSpaceOnUse">
<stop stop-color="#2B7D1B"/>
<stop offset="1" stop-color="#5DBB4A"/>
</linearGradient>
<linearGradient id="paint7_linear_1030_397" x1="102.342" y1="64.8042" x2="102.342" y2="76.3531" gradientUnits="userSpaceOnUse">
<stop stop-color="#2B7D1B"/>
<stop offset="1" stop-color="#5DBB4A"/>
</linearGradient>
<linearGradient id="paint8_linear_1030_397" x1="102.342" y1="67.1786" x2="102.342" y2="74.1079" gradientUnits="userSpaceOnUse">
<stop stop-color="#2B7D1B"/>
<stop offset="1" stop-color="#5DBB4A"/>
</linearGradient>
<linearGradient id="paint9_linear_1030_397" x1="329" y1="63.725" x2="329" y2="78.125" gradientUnits="userSpaceOnUse">
<stop stop-color="#2B7D1B"/>
<stop offset="1" stop-color="#5DBB4A"/>
</linearGradient>
<linearGradient id="paint10_linear_1030_397" x1="215" y1="95.125" x2="215" y2="271.125" gradientUnits="userSpaceOnUse">
<stop stop-color="#212005"/>
<stop offset="0.530017" stop-color="#0A0B03"/>
<stop offset="1" stop-color="#131002"/>
</linearGradient>
<linearGradient id="paint11_linear_1030_397" x1="215" y1="95.125" x2="215" y2="271.125" gradientUnits="userSpaceOnUse">
<stop stop-color="#4B390F"/>
<stop offset="1" stop-color="#100C02"/>
</linearGradient>
<linearGradient id="paint12_linear_1030_397" x1="214.989" y1="114.862" x2="214.989" y2="131.189" gradientUnits="userSpaceOnUse">
<stop stop-color="#E9E243"/>
<stop offset="1" stop-color="#45430D"/>
</linearGradient>
<linearGradient id="paint13_linear_1030_397" x1="214.989" y1="114.862" x2="214.989" y2="131.189" gradientUnits="userSpaceOnUse">
<stop stop-color="#E9E243"/>
<stop offset="1" stop-color="#45430D"/>
</linearGradient>
<linearGradient id="paint14_linear_1030_397" x1="214.989" y1="114.862" x2="214.989" y2="131.189" gradientUnits="userSpaceOnUse">
<stop stop-color="#E9E243"/>
<stop offset="1" stop-color="#45430D"/>
</linearGradient>
<linearGradient id="paint15_linear_1030_397" x1="178.65" y1="168.676" x2="254.786" y2="247.827" gradientUnits="userSpaceOnUse">
<stop stop-color="#584616"/>
<stop offset="0.44" stop-color="#3C330E"/>
<stop offset="1" stop-color="#191704"/>
</linearGradient>
<linearGradient id="paint16_linear_1030_397" x1="215.002" y1="147.314" x2="215.002" y2="257.314" gradientUnits="userSpaceOnUse">
<stop stop-color="#6C5C17"/>
<stop offset="0.465" stop-color="#4B3F10"/>
<stop offset="1" stop-color="#1F1D12"/>
</linearGradient>
<linearGradient id="paint17_linear_1030_397" x1="197.848" y1="190.435" x2="183.951" y2="241.514" gradientUnits="userSpaceOnUse">
<stop stop-color="#1D1C05"/>
<stop offset="0.568651" stop-color="#0C0C01"/>
<stop offset="1" stop-color="#1D1C05"/>
</linearGradient>
<linearGradient id="paint18_linear_1030_397" x1="197.848" y1="190.435" x2="183.951" y2="241.514" gradientUnits="userSpaceOnUse">
<stop stop-color="#1D1C05"/>
<stop offset="0.568651" stop-color="#0C0C01"/>
<stop offset="1" stop-color="#1D1C05"/>
</linearGradient>
<linearGradient id="paint19_linear_1030_397" x1="197.848" y1="190.435" x2="183.951" y2="241.514" gradientUnits="userSpaceOnUse">
<stop stop-color="#1D1C05"/>
<stop offset="0.568651" stop-color="#0C0C01"/>
<stop offset="1" stop-color="#1D1C05"/>
</linearGradient>
<linearGradient id="paint20_linear_1030_397" x1="197.848" y1="190.435" x2="183.951" y2="241.514" gradientUnits="userSpaceOnUse">
<stop stop-color="#1D1C05"/>
<stop offset="0.568651" stop-color="#0C0C01"/>
<stop offset="1" stop-color="#1D1C05"/>
</linearGradient>
<linearGradient id="paint21_linear_1030_397" x1="197.848" y1="190.435" x2="183.951" y2="241.514" gradientUnits="userSpaceOnUse">
<stop stop-color="#1D1C05"/>
<stop offset="0.568651" stop-color="#0C0C01"/>
<stop offset="1" stop-color="#1D1C05"/>
</linearGradient>
<linearGradient id="paint22_linear_1030_397" x1="197.848" y1="190.435" x2="183.951" y2="241.514" gradientUnits="userSpaceOnUse">
<stop stop-color="#1D1C05"/>
<stop offset="0.568651" stop-color="#0C0C01"/>
<stop offset="1" stop-color="#1D1C05"/>
</linearGradient>
<linearGradient id="paint23_linear_1030_397" x1="197.848" y1="190.435" x2="183.951" y2="241.514" gradientUnits="userSpaceOnUse">
<stop stop-color="#4F4C0C"/>
<stop offset="0.568651" stop-color="#100E03"/>
<stop offset="1" stop-color="#4D4B0E"/>
</linearGradient>
<linearGradient id="paint24_linear_1030_397" x1="197.848" y1="190.435" x2="183.951" y2="241.514" gradientUnits="userSpaceOnUse">
<stop stop-color="#4F4C0C"/>
<stop offset="0.568651" stop-color="#100E03"/>
<stop offset="1" stop-color="#4D4B0E"/>
</linearGradient>
<linearGradient id="paint25_linear_1030_397" x1="197.848" y1="190.435" x2="183.951" y2="241.514" gradientUnits="userSpaceOnUse">
<stop stop-color="#4F4C0C"/>
<stop offset="0.568651" stop-color="#100E03"/>
<stop offset="1" stop-color="#4D4B0E"/>
</linearGradient>
<linearGradient id="paint26_linear_1030_397" x1="197.848" y1="190.435" x2="183.951" y2="241.514" gradientUnits="userSpaceOnUse">
<stop stop-color="#4F4C0C"/>
<stop offset="0.568651" stop-color="#100E03"/>
<stop offset="1" stop-color="#4D4B0E"/>
</linearGradient>
<linearGradient id="paint27_linear_1030_397" x1="197.848" y1="190.435" x2="183.951" y2="241.514" gradientUnits="userSpaceOnUse">
<stop stop-color="#4F4C0C"/>
<stop offset="0.568651" stop-color="#100E03"/>
<stop offset="1" stop-color="#4D4B0E"/>
</linearGradient>
<linearGradient id="paint28_linear_1030_397" x1="197.848" y1="190.435" x2="183.951" y2="241.514" gradientUnits="userSpaceOnUse">
<stop stop-color="#4F4C0C"/>
<stop offset="0.568651" stop-color="#100E03"/>
<stop offset="1" stop-color="#4D4B0E"/>
</linearGradient>
<linearGradient id="paint29_linear_1030_397" x1="85.2843" y1="126.039" x2="73.5406" y2="318.98" gradientUnits="userSpaceOnUse">
<stop stop-color="#977414"/>
<stop offset="0.44" stop-color="#372D07"/>
<stop offset="1" stop-color="#191703"/>
</linearGradient>
<linearGradient id="paint30_linear_1030_397" x1="59.2436" y1="160.433" x2="59.2436" y2="233.882" gradientUnits="userSpaceOnUse">
<stop stop-color="#B69E35"/>
<stop offset="0.465" stop-color="#9D851F"/>
<stop offset="0.931102" stop-color="#C6B776"/>
</linearGradient>
<linearGradient id="paint31_linear_1030_397" x1="67" y1="159.125" x2="67" y2="210.125" gradientUnits="userSpaceOnUse">
<stop stop-color="#FFC285"/>
<stop offset="0.470017" stop-color="#D7D7D7"/>
<stop offset="1" stop-color="#CF9279"/>
</linearGradient>
<linearGradient id="paint32_linear_1030_397" x1="67" y1="159.125" x2="67" y2="210.125" gradientUnits="userSpaceOnUse">
<stop stop-color="#FFC285"/>
<stop offset="0.470017" stop-color="#D7D7D7"/>
<stop offset="1" stop-color="#CF9279"/>
</linearGradient>
<linearGradient id="paint33_linear_1030_397" x1="367.775" y1="84.189" x2="365.428" y2="341.36" gradientUnits="userSpaceOnUse">
<stop stop-color="#2E9714"/>
<stop offset="0.44" stop-color="#0A2F0A"/>
<stop offset="1" stop-color="#0A1A04"/>
</linearGradient>
<linearGradient id="paint34_linear_1030_397" x1="354.358" y1="118.001" x2="357.878" y2="261.425" gradientUnits="userSpaceOnUse">
<stop stop-color="#339B19"/>
<stop offset="0.44" stop-color="#0F620E"/>
<stop offset="1" stop-color="#112D06"/>
</linearGradient>
<linearGradient id="paint35_linear_1030_397" x1="365.18" y1="169.125" x2="365.18" y2="200.011" gradientUnits="userSpaceOnUse">
<stop stop-color="#A1A29C"/>
<stop offset="0.470017" stop-color="#5B5858"/>
<stop offset="1" stop-color="#A3A3A3"/>
</linearGradient>
<linearGradient id="paint36_linear_1030_397" x1="365.18" y1="169.125" x2="365.18" y2="200.011" gradientUnits="userSpaceOnUse">
<stop stop-color="#A1A29C"/>
<stop offset="0.470017" stop-color="#5B5858"/>
<stop offset="1" stop-color="#A3A3A3"/>
</linearGradient>
</defs>
</svg>
