<svg width="430" height="83" viewBox="0 0 430 83" fill="none" xmlns="http://www.w3.org/2000/svg">
<mask id="path-1-inside-1_1026_396" fill="white">
<path d="M0 80.125C0 81.2296 0.895431 82.125 2 82.125H428C429.105 82.125 430 81.2296 430 80.125V2.125C430 1.02043 429.105 0.125 428 0.125H2.00001C0.895442 0.125 0 1.02043 0 2.125V80.125Z"/>
</mask>
<path d="M0 80.125C0 81.2296 0.895431 82.125 2 82.125H428C429.105 82.125 430 81.2296 430 80.125V2.125C430 1.02043 429.105 0.125 428 0.125H2.00001C0.895442 0.125 0 1.02043 0 2.125V80.125Z" fill="url(#paint0_linear_1026_396)"/>
<path d="M0 82.125H430H0ZM430 2.125C430 0.468147 428.657 -0.875 427 -0.875H3C1.34315 -0.875 0 0.468147 0 2.125C0 1.57272 0.895431 1.125 2 1.125H428C429.105 1.125 430 1.57272 430 2.125ZM0 0.125V82.125V0.125ZM430 82.125V0.125V82.125Z" fill="url(#paint1_linear_1026_396)" mask="url(#path-1-inside-1_1026_396)"/>
<path d="M49.3611 50.0247C49.3732 50.6443 49.27 51.2602 49.0577 51.8353C48.8455 52.4104 48.5286 52.9327 48.1261 53.3709C47.7236 53.8091 47.2439 54.1541 46.7157 54.3851C46.1876 54.616 45.6221 54.7282 45.0531 54.7149C44.4843 54.728 43.9189 54.6157 43.391 54.3846C42.8631 54.1535 42.3836 53.8085 41.9814 53.3703C41.5792 52.9321 41.2625 52.4098 41.0505 51.8349C40.8385 51.2599 40.7355 50.6441 40.7477 50.0247M54.0413 50.0247C54.3913 50.0461 54.7405 49.9694 55.0556 49.8021C55.3707 49.6348 55.6412 49.3823 55.8413 49.0689C56.0414 48.7554 56.1644 48.3913 56.1987 48.0114C56.2329 47.6314 56.1772 47.2482 56.0369 46.8984C55.5618 45.3345 53.6678 43.4587 53.6678 41.6131C53.6678 37.5165 53.6678 36.4385 51.816 34.0294C51.216 33.2538 50.472 32.6253 49.633 32.1852L48.5995 31.639C48.4261 31.525 48.2765 31.3728 48.1604 31.1921C48.0442 31.0114 47.9641 30.8062 47.9251 30.5897C47.8218 29.8601 47.4676 29.2006 46.9342 28.745C46.4009 28.2893 45.7284 28.0717 45.0531 28.1361C44.3901 28.0931 43.7361 28.3206 43.2188 28.7742C42.7015 29.2279 42.3579 29.8751 42.255 30.5897C42.2086 30.8135 42.1177 31.0235 41.9886 31.2048C41.8595 31.3861 41.6954 31.5344 41.508 31.639L40.4732 32.1852C39.6351 32.6257 38.8921 33.2541 38.2928 34.0294C36.441 36.4385 36.441 37.5165 36.441 41.6131C36.441 43.4587 34.6328 45.1462 34.1577 46.8035C33.8713 47.8054 33.7129 50.0247 36.1111 50.0247H54.0413Z" stroke="url(#paint2_linear_1026_396)" stroke-width="2" stroke-linecap="round" stroke-linejoin="round"/>
<defs>
<linearGradient id="paint0_linear_1026_396" x1="150.334" y1="98.8287" x2="143.456" y2="-28.6155" gradientUnits="userSpaceOnUse">
<stop stop-color="#090808"/>
<stop offset="0.47" stop-color="#1B1A1A"/>
<stop offset="0.734435" stop-color="#31302F"/>
<stop offset="1" stop-color="#5B5A52"/>
</linearGradient>
<linearGradient id="paint1_linear_1026_396" x1="215" y1="82.125" x2="215" y2="0.125" gradientUnits="userSpaceOnUse">
<stop stop-color="#292525"/>
<stop offset="1" stop-color="#424141"/>
</linearGradient>
<linearGradient id="paint2_linear_1026_396" x1="45.1043" y1="28.125" x2="45.1043" y2="54.716" gradientUnits="userSpaceOnUse">
<stop stop-color="#AFA8A8"/>
<stop offset="0.469991" stop-color="#51514A"/>
<stop offset="1" stop-color="#323130"/>
</linearGradient>
</defs>
</svg>
