<svg width="185" height="53" viewBox="0 0 185 53" fill="none" xmlns="http://www.w3.org/2000/svg">
<g filter="url(#filter0_d_935_2563)">
<rect x="5" y="1.125" width="175" height="43" rx="21" fill="url(#paint0_linear_935_2563)" shape-rendering="crispEdges"/>
<rect x="5" y="1.125" width="175" height="43" rx="21" stroke="url(#paint1_linear_935_2563)" stroke-width="0.5" shape-rendering="crispEdges"/>
</g>
<path d="M91.7992 32.9605C92.0719 32.9605 92.3232 32.9292 92.6062 32.9082L93.2142 34.0608C93.3291 34.2915 93.5598 34.4171 93.8424 34.3751C94.1044 34.3228 94.293 34.1341 94.3243 33.8511L94.513 32.5831C95.0267 32.4472 95.54 32.2478 96.0429 32.0278L96.9863 32.8769C97.1853 33.0655 97.4365 33.1071 97.6985 32.9605C97.9292 32.8348 98.0236 32.5831 97.9712 32.3108L97.7092 31.0536C98.1533 30.7436 98.5705 30.3966 98.9562 30.0164L100.13 30.5082C100.392 30.6132 100.633 30.5609 100.832 30.32C101.01 30.1313 101.031 29.859 100.884 29.6283L100.203 28.5387C100.517 28.0984 100.769 27.6267 101.01 27.1237L102.289 27.1867C102.561 27.197 102.791 27.0504 102.886 26.7888C102.969 26.5264 102.886 26.2751 102.666 26.1075L101.67 25.3112C101.806 24.8082 101.911 24.2632 101.953 23.6972L103.169 23.3203C103.431 23.226 103.598 23.0266 103.598 22.7436C103.598 22.4713 103.431 22.2723 103.169 22.178L101.953 21.7904C101.911 21.2243 101.806 20.7004 101.67 20.1871L102.665 19.3801C102.886 19.2232 102.969 18.9822 102.886 18.7202C102.791 18.4582 102.561 18.3111 102.288 18.3218L101.01 18.3741C100.769 17.8712 100.518 17.3995 100.203 16.9596L100.884 15.87C101.031 15.6496 101.01 15.3773 100.832 15.1886C100.633 14.9476 100.392 14.8846 100.13 15L98.9562 15.4716C98.5648 15.1007 98.148 14.7575 97.7088 14.4447L97.9712 13.1977C98.0236 12.9147 97.9292 12.6635 97.6985 12.5374C97.4365 12.4015 97.1853 12.4225 96.9863 12.6317L96.0429 13.4597C95.5457 13.2441 95.0346 13.062 94.513 12.9147L94.3243 11.6468C94.293 11.3741 94.1044 11.1755 93.8424 11.1335C93.5594 11.0915 93.3291 11.2068 93.2138 11.4375L92.6057 12.5901C92.3232 12.5691 92.0714 12.5481 91.7992 12.5481C91.5162 12.5481 91.2649 12.5691 90.9712 12.5901L90.3743 11.4375C90.2589 11.2068 90.0282 11.0915 89.7349 11.1335C89.4729 11.1755 89.2946 11.3745 89.253 11.6468L89.0746 12.9044C88.5532 13.0565 88.0422 13.242 87.5446 13.4597L86.6017 12.6317C86.3921 12.4225 86.1408 12.4015 85.8891 12.5378C85.6588 12.663 85.5645 12.9147 85.6163 13.1977L85.8788 14.4451C85.4343 14.7551 85.0139 15.0983 84.6211 15.4716L83.4582 15C83.1962 14.8846 82.9445 14.9476 82.7456 15.1886C82.6642 15.279 82.615 15.3938 82.6055 15.5151C82.5961 15.6363 82.6269 15.7573 82.6933 15.8593L83.3849 16.96C83.0706 17.3999 82.8189 17.8721 82.5779 18.3746L81.289 18.3223C81.0162 18.312 80.786 18.4586 80.7024 18.7202C80.6183 18.9826 80.6916 19.2236 80.9116 19.3805L81.9176 20.1875C81.7817 20.7008 81.6663 21.2248 81.635 21.7908L80.4189 22.1784C80.1471 22.262 80 22.4614 80 22.7445C80 23.027 80.1471 23.2264 80.4194 23.3208L81.635 23.7084C81.6663 24.2637 81.7817 24.8082 81.918 25.3116L80.9121 26.1075C80.6916 26.2751 80.6183 26.5268 80.7019 26.7884C80.786 27.0504 81.0167 27.197 81.289 27.1867L82.5779 27.1241C82.8194 27.6267 83.0706 28.0988 83.3742 28.5383L82.7036 29.6283C82.5466 29.859 82.5676 30.1313 82.7456 30.32C82.9445 30.5609 83.1962 30.6132 83.4582 30.5086L84.6211 30.0159C85.0092 30.4036 85.4389 30.7492 85.8788 31.0532L85.6168 32.3108C85.5645 32.5836 85.6588 32.8348 85.8895 32.9605C86.1511 33.1071 86.4028 33.0651 86.6017 32.8769L87.5344 32.0278C88.0373 32.2478 88.5506 32.4472 89.0746 32.5831L89.253 33.8511C89.2946 34.1341 89.4729 34.3228 89.7349 34.3751C90.0282 34.4171 90.2589 34.2915 90.3743 34.0608L90.9712 32.9082C91.2542 32.9292 91.5166 32.9605 91.7992 32.9605ZM94.4294 22.0837C93.9367 20.7634 92.9728 20.0405 91.7679 20.0405C91.5895 20.0405 91.3802 20.0615 91.0449 20.1343L88.0373 15C89.1586 14.4447 90.4369 14.1406 91.7992 14.1406C96.368 14.1406 99.9514 17.6092 100.276 22.0837H94.4294ZM83.2906 22.7543C83.2906 19.8411 84.6632 17.2739 86.8324 15.7233L89.8606 20.889C89.2946 21.4761 89.033 22.115 89.033 22.7963C89.033 23.4562 89.2843 24.0643 89.8606 24.6719L86.7591 29.7437C84.6421 28.182 83.2906 25.6465 83.2906 22.7543ZM90.5102 22.7856C90.5102 22.0734 91.1182 21.5176 91.7889 21.5176C92.5011 21.5176 93.0881 22.0734 93.0881 22.7856C93.0881 23.4875 92.5011 24.0643 91.7889 24.0643C91.1182 24.0643 90.5102 23.4875 90.5102 22.7856ZM91.7992 31.3679C90.4056 31.3679 89.1063 31.0429 87.964 30.4773L91.0445 25.4368C91.3695 25.5209 91.5899 25.5415 91.7679 25.5415C92.9831 25.5415 93.9474 24.7975 94.4294 23.4459H100.276C99.9407 27.899 96.3572 31.3679 91.7992 31.3679Z" fill="url(#paint2_linear_935_2563)" fill-opacity="0.66" stroke="url(#paint3_linear_935_2563)" stroke-width="0.5"/>
<path d="M22.6001 17.5654C22.3792 17.5654 22.2001 17.3863 22.2001 17.1653L22.2001 15.9452L22.2001 14.7248C22.2002 14.504 22.3792 14.325 22.6001 14.325H47.1671C47.3873 14.325 47.5662 14.5032 47.5672 14.7236C47.5692 15.159 47.5692 15.1881 47.5692 15.9452C47.5692 16.5982 47.5692 16.8633 47.568 17.1684C47.567 17.3877 47.3885 17.5654 47.1684 17.5654H22.6001ZM47.1671 21.6058C47.3875 21.6058 47.5662 21.7841 47.5665 22.0037C47.5668 22.2118 47.5664 22.3261 47.5659 22.4705C47.5653 22.63 47.5645 22.8261 47.5645 23.226V23.2304V23.2348V23.2392V23.2436V23.2479V23.2523V23.2566V23.2609V23.2652V23.2695V23.2737V23.2779V23.2822V23.2864V23.2906V23.2948V23.2989V23.3031V23.3072V23.3113V23.3154V23.3195V23.3236V23.3276V23.3316V23.3357V23.3397V23.3437V23.3476V23.3516V23.3555V23.3595V23.3634V23.3673V23.3712V23.375V23.3789V23.3827V23.3866V23.3904V23.3942V23.398V23.4017V23.4055V23.4092V23.4129V23.4167V23.4204V23.424V23.4277V23.4314V23.435V23.4386V23.4422V23.4458V23.4494V23.453V23.4566V23.4601V23.4636V23.4671V23.4706V23.4741V23.4776V23.4811V23.4845V23.488V23.4914V23.4948V23.4982V23.5016V23.5049V23.5083V23.5116V23.515V23.5183V23.5216V23.5249V23.5282V23.5314V23.5347V23.5379V23.5412V23.5444V23.5476V23.5508V23.554V23.5571V23.5603V23.5634V23.5666V23.5697V23.5728V23.5759V23.579V23.5821V23.5851V23.5882V23.5912V23.5942V23.5973V23.6003V23.6032V23.6062V23.6092V23.6122V23.6151V23.618V23.621V23.6239V23.6268V23.6297V23.6326V23.6354V23.6383V23.6411V23.644V23.6468V23.6496V23.6524V23.6552V23.658V23.6608V23.6635V23.6663V23.669V23.6718V23.6745V23.6772V23.6799V23.6826V23.6853V23.6879V23.6906V23.6933V23.6959V23.6985V23.7012V23.7038V23.7064V23.709V23.7115V23.7141V23.7167V23.7192V23.7218V23.7243V23.7269V23.7294V23.7319V23.7344V23.7369V23.7394V23.7418V23.7443V23.7468V23.7492V23.7517V23.7541V23.7565V23.7589V23.7613V23.7637V23.7661V23.7685V23.7709V23.7732V23.7756V23.7779V23.7803V23.7826V23.7849V23.7873V23.7896V23.7919V23.7942V23.7964V23.7987V23.801V23.8032V23.8055V23.8077V23.81V23.8122V23.8144V23.8167V23.8189V23.8211V23.8233V23.8255V23.8276V23.8298V23.832V23.8341V23.8363V23.8384V23.8406V23.8427V23.8449V23.847V23.8491V23.8512V23.8533V23.8554V23.8575V23.8596V23.8616V23.8637V23.8658V23.8678V23.8699V23.8719V23.874V23.876V23.878V23.8801V23.8821V23.8841V23.8861V23.8881V23.8901V23.8921V23.8941V23.896V23.898V23.9V23.9019V23.9039V23.9059V23.9078V23.9097V23.9117V23.9136V23.9155V23.9175V23.9194V23.9213V23.9232V23.9251V23.927V23.9289V23.9308V23.9327V23.9346V23.9364V23.9383V23.9402V23.9421V23.9439V23.9458V23.9476V23.9495V23.9513V23.9532V23.955V23.9568V23.9587V23.9605V23.9623V23.9641V23.966V23.9678V23.9696V23.9714V23.9732V23.975V23.9768V23.9786V23.9804V23.9822V23.9839V23.9857V23.9875V23.9893V23.991V23.9928V23.9946V23.9963V23.9981V23.9999V24.0016V24.0034V24.0051V24.0069V24.0086V24.0104V24.0121V24.0139V24.0156V24.0173V24.0191V24.0208V24.0225V24.0243V24.026V24.0277V24.0294V24.0312V24.0329V24.0346V24.0363V24.038V24.0398V24.0415V24.0432V24.0449V24.0466V24.0483V24.05V24.0517V24.0534V24.0551V24.0568V24.0585V24.0603V24.062V24.0637V24.0654V24.0671V24.0688V24.0705V24.0722V24.0739V24.0756V24.0772V24.0789V24.0806V24.0823V24.084V24.0857V24.0874V24.0891V24.0908V24.0925V24.0942V24.0959V24.0976V24.0993V24.101V24.1027V24.1044V24.1061V24.1078V24.1095V24.1112V24.1129V24.1146V24.1163V24.1181V24.1198V24.1215V24.1232V24.1249V24.1266V24.1283V24.13V24.1317V24.1335V24.1352V24.1369V24.1386V24.1404V24.1421V24.1438V24.1455V24.1473V24.149V24.1507V24.1525V24.1542V24.1559V24.1577V24.1594V24.1612V24.1629V24.1647V24.1664V24.1682V24.17V24.1717V24.1735V24.1752V24.177V24.1788V24.1806V24.1823V24.1841V24.1859V24.1877V24.1895V24.1913V24.1931V24.1949V24.1967V24.1985V24.2003V24.2021V24.2039V24.2057V24.2075V24.2094V24.2112V24.213V24.2149V24.2167V24.2186V24.2204V24.2223V24.2241V24.226V24.2278V24.2297V24.2316V24.2335V24.2353V24.2372V24.2391V24.241V24.2429V24.2448V24.2467V24.2486V24.2505V24.2525V24.2544V24.2563V24.2583V24.2602V24.2622V24.2641V24.2661V24.268V24.27V24.272V24.2739V24.2759V24.2779V24.2799V24.2819V24.2839V24.2859V24.2879V24.29V24.292V24.294V24.2961V24.2981V24.3001V24.3022V24.3043V24.3063V24.3084V24.3105V24.3126V24.3147V24.3168V24.3189V24.321V24.3231V24.3252V24.3274V24.3295V24.3317V24.3338V24.336V24.3381V24.3403V24.3425V24.3447V24.3469V24.3491V24.3513V24.3535V24.3557V24.3579V24.3602V24.3624V24.3647V24.3669V24.3692V24.3715V24.3738V24.3761V24.3784V24.3807V24.383V24.3853V24.3876V24.39V24.3923V24.3947V24.397V24.3994V24.4018V24.4042V24.4066V24.409V24.4114V24.4138V24.4162V24.4187V24.4211V24.4236V24.426V24.4285V24.431V24.4335V24.436V24.4385V24.441V24.4435V24.4461C47.5645 24.667 47.3854 24.8462 47.1645 24.8462H22.5998C22.3789 24.8462 22.2 24.6674 22.2 24.4467L22.2001 23.226L22.2 22.0059C22.2 21.7849 22.3791 21.6058 22.6 21.6058H47.1671ZM47.1645 28.8866C47.3854 28.8866 47.5645 29.0658 47.5645 29.2867V29.2893V29.2918V29.2943V29.2968V29.2993V29.3018V29.3043V29.3068V29.3092V29.3117V29.3141V29.3166V29.319V29.3214V29.3238V29.3262V29.3286V29.331V29.3334V29.3358V29.3381V29.3405V29.3428V29.3452V29.3475V29.3498V29.3521V29.3544V29.3567V29.359V29.3613V29.3636V29.3658V29.3681V29.3704V29.3726V29.3748V29.3771V29.3793V29.3815V29.3837V29.3859V29.3881V29.3903V29.3925V29.3946V29.3968V29.399V29.4011V29.4033V29.4054V29.4075V29.4097V29.4118V29.4139V29.416V29.4181V29.4202V29.4223V29.4244V29.4264V29.4285V29.4306V29.4326V29.4347V29.4367V29.4388V29.4408V29.4428V29.4448V29.4469V29.4489V29.4509V29.4529V29.4549V29.4569V29.4588V29.4608V29.4628V29.4648V29.4667V29.4687V29.4706V29.4726V29.4745V29.4764V29.4784V29.4803V29.4822V29.4841V29.4861V29.488V29.4899V29.4918V29.4937V29.4956V29.4974V29.4993V29.5012V29.5031V29.5049V29.5068V29.5087V29.5105V29.5124V29.5142V29.5161V29.5179V29.5197V29.5216V29.5234V29.5252V29.5271V29.5289V29.5307V29.5325V29.5343V29.5361V29.5379V29.5397V29.5415V29.5433V29.5451V29.5469V29.5487V29.5504V29.5522V29.554V29.5558V29.5575V29.5593V29.5611V29.5628V29.5646V29.5663V29.5681V29.5698V29.5716V29.5733V29.5751V29.5768V29.5786V29.5803V29.582V29.5838V29.5855V29.5872V29.589V29.5907V29.5924V29.5941V29.5959V29.5976V29.5993V29.601V29.6027V29.6045V29.6062V29.6079V29.6096V29.6113V29.613V29.6147V29.6164V29.6181V29.6198V29.6215V29.6233V29.625V29.6267V29.6284V29.6301V29.6318V29.6335V29.6352V29.6369V29.6386V29.6403V29.6419V29.6436V29.6453V29.647V29.6487V29.6504V29.6521V29.6538V29.6555V29.6572V29.6589V29.6606V29.6623V29.664V29.6657V29.6674V29.6691V29.6708V29.6725V29.6742V29.6759V29.6776V29.6793V29.6811V29.6828V29.6845V29.6862V29.6879V29.6896V29.6913V29.693V29.6947V29.6965V29.6982V29.6999V29.7016V29.7033V29.7051V29.7068V29.7085V29.7102V29.712V29.7137V29.7154V29.7172V29.7189V29.7207V29.7224V29.7242V29.7259V29.7276V29.7294V29.7312V29.7329V29.7347V29.7364V29.7382V29.74V29.7417V29.7435V29.7453V29.7471V29.7488V29.7506V29.7524V29.7542V29.756V29.7578V29.7596V29.7614V29.7632V29.765V29.7668V29.7686V29.7705V29.7723V29.7741V29.7759V29.7778V29.7796V29.7815V29.7833V29.7851V29.787V29.7889V29.7907V29.7926V29.7945V29.7963V29.7982V29.8001V29.802V29.8039V29.8058V29.8077V29.8096V29.8115V29.8134V29.8153V29.8172V29.8192V29.8211V29.823V29.825V29.8269V29.8289V29.8308V29.8328V29.8348V29.8367V29.8387V29.8407V29.8427V29.8447V29.8467V29.8487V29.8507V29.8527V29.8547V29.8568V29.8588V29.8608V29.8629V29.8649V29.867V29.8691V29.8711V29.8732V29.8753V29.8774V29.8795V29.8816V29.8837V29.8858V29.8879V29.8901V29.8922V29.8943V29.8965V29.8986V29.9008V29.903V29.9051V29.9073V29.9095V29.9117V29.9139V29.9161V29.9183V29.9206V29.9228V29.925V29.9273V29.9295V29.9318V29.9341V29.9363V29.9386V29.9409V29.9432V29.9455V29.9478V29.9502V29.9525V29.9548V29.9572V29.9595V29.9619V29.9643V29.9667V29.969V29.9714V29.9739V29.9763V29.9787V29.9811V29.9836V29.986V29.9885V29.9909V29.9934V29.9959V29.9984V30.0009V30.0034V30.0059V30.0084V30.011V30.0135V30.0161V30.0187V30.0212V30.0238V30.0264V30.029V30.0316V30.0342V30.0369V30.0395V30.0422V30.0448V30.0475V30.0502V30.0529V30.0556V30.0583V30.061V30.0638V30.0665V30.0692V30.072V30.0748V30.0776V30.0804V30.0832V30.086V30.0888V30.0916V30.0945V30.0974V30.1002V30.1031V30.106V30.1089V30.1118V30.1147V30.1177V30.1206V30.1236V30.1265V30.1295V30.1325V30.1355V30.1385V30.1416V30.1446V30.1477V30.1507V30.1538V30.1569V30.16V30.1631V30.1662V30.1693V30.1725V30.1756V30.1788V30.182V30.1852V30.1884V30.1916V30.1948V30.1981V30.2013V30.2046V30.2079V30.2112V30.2145V30.2178V30.2211V30.2245V30.2278V30.2312V30.2346V30.238V30.2414V30.2448V30.2483V30.2517V30.2552V30.2586V30.2621V30.2656V30.2692V30.2727V30.2762V30.2798V30.2834V30.2869V30.2905V30.2942V30.2978V30.3014V30.3051V30.3087V30.3124V30.3161V30.3198V30.3236V30.3273V30.3311V30.3348V30.3386V30.3424V30.3462V30.35V30.3539V30.3577V30.3616V30.3655V30.3694V30.3733V30.3772V30.3812V30.3851V30.3891V30.3931V30.3971V30.4011V30.4052V30.4092V30.4133V30.4174V30.4215V30.4256V30.4297V30.4339V30.438V30.4422V30.4464V30.4506V30.4548V30.4591V30.4633V30.4676V30.4719V30.4762V30.4805V30.4849V30.4892V30.4936V30.498V30.5024V30.5068C47.5645 30.9021 47.5653 31.1591 47.5659 31.3674C47.5663 31.5007 47.5666 31.614 47.5666 31.7309C47.5667 31.9493 47.3888 32.127 47.1684 32.127H22.6001C22.3794 32.127 22.2002 31.9478 22.2001 31.7268L22.2001 30.5068L22.2002 29.2868C22.2002 29.0658 22.3794 28.8866 22.6002 28.8866H47.1645Z" fill="url(#paint4_linear_935_2563)" fill-opacity="0.66" stroke="url(#paint5_linear_935_2563)" stroke-width="0.4"/>
<path d="M140.339 25.9018C139.903 25.4088 139.986 24.4737 140.123 23.8666C140.688 21.3532 143.236 19.9606 145.663 19.8093C149.855 19.5481 153.559 22.4755 157.672 22.1815C159.226 22.0704 160.71 21.2929 160.948 19.6396C161.37 20.1055 161.305 21.0211 161.181 21.6071C160.783 23.4889 159.102 24.9487 157.285 25.4363C152.623 26.6877 149.106 23.6058 144.724 23.3641C142.823 23.2594 140.68 23.7412 140.339 25.9018Z" fill="url(#paint6_linear_935_2563)"/>
<path d="M142.297 29.4565C140.888 28.0756 141.004 25.9547 143.147 25.4337C145.569 24.845 148.218 26.2889 150.493 26.94C153.82 27.892 158.158 28.2179 160.694 25.4385L161.288 24.5483C160.677 29.2963 155.485 30.8121 151.293 30.2922C149.064 30.0156 147.245 28.9187 145.153 28.3548C143.937 28.0269 142.287 27.6763 142.297 29.4565Z" fill="url(#paint7_linear_935_2563)"/>
<path d="M158.99 16.0848C160.115 17.1246 160.394 19.0662 158.822 19.8543C156.476 21.0306 153.102 19.2582 150.794 18.6013C147.462 17.6525 143.135 17.3235 140.593 20.1029L140 20.993C140.793 15.549 147.19 14.3674 151.75 15.6194C153.232 16.0261 154.657 16.7877 156.135 17.1865C157.363 17.5176 158.993 17.8773 158.99 16.0848Z" fill="url(#paint8_linear_935_2563)"/>
<path d="M157.341 14.5065C157.543 14.7297 157.883 15.1714 157.628 15.4517C157.43 15.6686 156.772 15.4602 156.501 15.384C155.189 15.0148 153.881 14.2987 152.517 13.9269C149.652 13.1457 146.639 13.2779 143.916 14.4759C146.405 12.3777 149.845 11.6764 153.029 12.4026C154.275 12.6866 156.486 13.5609 157.341 14.5065Z" fill="url(#paint9_linear_935_2563)"/>
<path d="M157.371 31.0655C154.22 33.6999 149.831 34.0718 146.1 32.4068C145.389 32.0894 144.122 31.3728 143.708 30.7222C143.516 30.4207 143.477 30.0489 143.895 29.9786C144.475 29.8807 147.793 31.341 148.705 31.5949C151.585 32.3951 154.63 32.2772 157.371 31.0655Z" fill="url(#paint10_linear_935_2563)"/>
<path d="M140.339 25.9018C139.903 25.4088 139.986 24.4737 140.123 23.8666C140.688 21.3532 143.236 19.9606 145.663 19.8093C149.855 19.5481 153.559 22.4755 157.672 22.1815C159.226 22.0704 160.71 21.2929 160.948 19.6396C161.37 20.1055 161.305 21.0211 161.181 21.6071C160.783 23.4889 159.102 24.9487 157.285 25.4363C152.623 26.6877 149.106 23.6058 144.724 23.3641C142.823 23.2594 140.68 23.7412 140.339 25.9018Z" stroke="url(#paint11_linear_935_2563)" stroke-width="0.5"/>
<path d="M142.297 29.4565C140.888 28.0756 141.004 25.9547 143.147 25.4337C145.569 24.845 148.218 26.2889 150.493 26.94C153.82 27.892 158.158 28.2179 160.694 25.4385L161.288 24.5483C160.677 29.2963 155.485 30.8121 151.293 30.2922C149.064 30.0156 147.245 28.9187 145.153 28.3548C143.937 28.0269 142.287 27.6763 142.297 29.4565Z" stroke="url(#paint12_linear_935_2563)" stroke-width="0.5"/>
<path d="M158.99 16.0848C160.115 17.1246 160.394 19.0662 158.822 19.8543C156.476 21.0306 153.102 19.2582 150.794 18.6013C147.462 17.6525 143.135 17.3235 140.593 20.1029L140 20.993C140.793 15.549 147.19 14.3674 151.75 15.6194C153.232 16.0261 154.657 16.7877 156.135 17.1865C157.363 17.5176 158.993 17.8773 158.99 16.0848Z" stroke="url(#paint13_linear_935_2563)" stroke-width="0.5"/>
<path d="M157.341 14.5065C157.543 14.7297 157.883 15.1714 157.628 15.4517C157.43 15.6686 156.772 15.4602 156.501 15.384C155.189 15.0148 153.881 14.2987 152.517 13.9269C149.652 13.1457 146.639 13.2779 143.916 14.4759C146.405 12.3777 149.845 11.6764 153.029 12.4026C154.275 12.6866 156.486 13.5609 157.341 14.5065Z" stroke="url(#paint14_linear_935_2563)" stroke-width="0.5"/>
<path d="M157.371 31.0655C154.22 33.6999 149.831 34.0718 146.1 32.4068C145.389 32.0894 144.122 31.3728 143.708 30.7222C143.516 30.4207 143.477 30.0489 143.895 29.9786C144.475 29.8807 147.793 31.341 148.705 31.5949C151.585 32.3951 154.63 32.2772 157.371 31.0655Z" stroke="url(#paint15_linear_935_2563)" stroke-width="0.5"/>
<defs>
<filter id="filter0_d_935_2563" x="0.75" y="0.875" width="183.5" height="51.5" filterUnits="userSpaceOnUse" color-interpolation-filters="sRGB">
<feFlood flood-opacity="0" result="BackgroundImageFix"/>
<feColorMatrix in="SourceAlpha" type="matrix" values="0 0 0 0 0 0 0 0 0 0 0 0 0 0 0 0 0 0 127 0" result="hardAlpha"/>
<feOffset dy="4"/>
<feGaussianBlur stdDeviation="2"/>
<feComposite in2="hardAlpha" operator="out"/>
<feColorMatrix type="matrix" values="0 0 0 0 0 0 0 0 0 0 0 0 0 0 0 0 0 0 0.25 0"/>
<feBlend mode="normal" in2="BackgroundImageFix" result="effect1_dropShadow_935_2563"/>
<feBlend mode="normal" in="SourceGraphic" in2="effect1_dropShadow_935_2563" result="shape"/>
</filter>
<linearGradient id="paint0_linear_935_2563" x1="39.8517" y1="-8.56992" x2="40.0092" y2="47.23" gradientUnits="userSpaceOnUse">
<stop stop-color="#494949"/>
<stop offset="0.295" stop-color="#1F1E1E" stop-opacity="0.97"/>
<stop offset="0.625" stop-color="#181818" stop-opacity="0.92"/>
<stop offset="0.945" stop-color="#1B1A1A"/>
</linearGradient>
<linearGradient id="paint1_linear_935_2563" x1="95.4661" y1="39.2987" x2="96.953" y2="5.93958" gradientUnits="userSpaceOnUse">
<stop stop-color="#3F3636"/>
<stop offset="0.0857422" stop-color="#2D2D0F"/>
<stop offset="0.456275" stop-color="#363634"/>
<stop offset="1" stop-color="#3A3A39"/>
</linearGradient>
<linearGradient id="paint2_linear_935_2563" x1="86.1771" y1="11.125" x2="100.073" y2="18.2534" gradientUnits="userSpaceOnUse">
<stop stop-color="#CACACA" stop-opacity="0.79"/>
<stop offset="0.295" stop-color="#5A4C4C" stop-opacity="0.95"/>
<stop offset="0.625" stop-color="#9A8C8C" stop-opacity="0.93"/>
<stop offset="0.945" stop-color="#6F5F5F" stop-opacity="0.8"/>
</linearGradient>
<linearGradient id="paint3_linear_935_2563" x1="91.7989" y1="11.125" x2="91.7989" y2="34.3831" gradientUnits="userSpaceOnUse">
<stop stop-color="#3E3B3B"/>
<stop offset="1" stop-color="#565656"/>
</linearGradient>
<linearGradient id="paint4_linear_935_2563" x1="28.7455" y1="14.125" x2="41.4197" y2="23.197" gradientUnits="userSpaceOnUse">
<stop stop-color="#A5A2A2" stop-opacity="0.74"/>
<stop offset="0.295" stop-color="#675E5E" stop-opacity="0.95"/>
<stop offset="0.625" stop-color="#575252" stop-opacity="0.93"/>
<stop offset="0.945" stop-color="#4D3E3E" stop-opacity="0.8"/>
</linearGradient>
<linearGradient id="paint5_linear_935_2563" x1="34.8846" y1="14.125" x2="34.8846" y2="32.327" gradientUnits="userSpaceOnUse">
<stop stop-color="#524848"/>
<stop offset="0.455" stop-color="#6F6666"/>
<stop offset="1" stop-color="#5A5959"/>
</linearGradient>
<linearGradient id="paint6_linear_935_2563" x1="150.644" y1="12.125" x2="150.644" y2="33.4126" gradientUnits="userSpaceOnUse">
<stop stop-color="#6F6F6F"/>
<stop offset="1" stop-color="#2D2A2A"/>
</linearGradient>
<linearGradient id="paint7_linear_935_2563" x1="150.644" y1="12.125" x2="150.644" y2="33.4126" gradientUnits="userSpaceOnUse">
<stop stop-color="#6F6F6F"/>
<stop offset="1" stop-color="#2D2A2A"/>
</linearGradient>
<linearGradient id="paint8_linear_935_2563" x1="150.644" y1="12.125" x2="150.644" y2="33.4126" gradientUnits="userSpaceOnUse">
<stop stop-color="#6F6F6F"/>
<stop offset="1" stop-color="#2D2A2A"/>
</linearGradient>
<linearGradient id="paint9_linear_935_2563" x1="150.644" y1="12.125" x2="150.644" y2="33.4126" gradientUnits="userSpaceOnUse">
<stop stop-color="#6F6F6F"/>
<stop offset="1" stop-color="#2D2A2A"/>
</linearGradient>
<linearGradient id="paint10_linear_935_2563" x1="150.644" y1="12.125" x2="150.644" y2="33.4126" gradientUnits="userSpaceOnUse">
<stop stop-color="#6F6F6F"/>
<stop offset="1" stop-color="#2D2A2A"/>
</linearGradient>
<linearGradient id="paint11_linear_935_2563" x1="150.644" y1="12.125" x2="150.644" y2="33.4126" gradientUnits="userSpaceOnUse">
<stop stop-color="#6F6F6F"/>
<stop offset="1" stop-color="#2D2A2A"/>
</linearGradient>
<linearGradient id="paint12_linear_935_2563" x1="150.644" y1="12.125" x2="150.644" y2="33.4126" gradientUnits="userSpaceOnUse">
<stop stop-color="#6F6F6F"/>
<stop offset="1" stop-color="#2D2A2A"/>
</linearGradient>
<linearGradient id="paint13_linear_935_2563" x1="150.644" y1="12.125" x2="150.644" y2="33.4126" gradientUnits="userSpaceOnUse">
<stop stop-color="#6F6F6F"/>
<stop offset="1" stop-color="#2D2A2A"/>
</linearGradient>
<linearGradient id="paint14_linear_935_2563" x1="150.644" y1="12.125" x2="150.644" y2="33.4126" gradientUnits="userSpaceOnUse">
<stop stop-color="#6F6F6F"/>
<stop offset="1" stop-color="#2D2A2A"/>
</linearGradient>
<linearGradient id="paint15_linear_935_2563" x1="150.644" y1="12.125" x2="150.644" y2="33.4126" gradientUnits="userSpaceOnUse">
<stop stop-color="#6F6F6F"/>
<stop offset="1" stop-color="#2D2A2A"/>
</linearGradient>
</defs>
</svg>
